<?xml version="1.0" encoding="UTF-8"?>
<svg id="Layer_2" data-name="Layer 2" xmlns="http://www.w3.org/2000/svg" xmlns:xlink="http://www.w3.org/1999/xlink" viewBox="0 0 355.99 355.99">
  <defs>
    <style>
      .cls-1 {
        stroke: #9c726c;
      }

      .cls-1, .cls-2, .cls-3, .cls-4, .cls-5 {
        stroke-miterlimit: 10;
      }

      .cls-1, .cls-6 {
        fill: #9c726b;
      }

      .cls-1, .cls-3, .cls-4, .cls-5 {
        stroke-width: .25px;
      }

      .cls-2 {
        stroke: #876c5c;
      }

      .cls-2, .cls-3, .cls-4, .cls-5 {
        fill: none;
      }

      .cls-7 {
        opacity: .5;
      }

      .cls-8 {
        fill: #4b614c;
      }

      .cls-8, .cls-9, .cls-10, .cls-11, .cls-12, .cls-13, .cls-14, .cls-15, .cls-16, .cls-17, .cls-18, .cls-19, .cls-20, .cls-21, .cls-22, .cls-23, .cls-24, .cls-25, .cls-26, .cls-27, .cls-28, .cls-29, .cls-30, .cls-31, .cls-32, .cls-33, .cls-34, .cls-35, .cls-36, .cls-37, .cls-6, .cls-38, .cls-39, .cls-40, .cls-41, .cls-42, .cls-43, .cls-44, .cls-45 {
        stroke-width: 0px;
      }

      .cls-9 {
        fill: #4a2d28;
      }

      .cls-10 {
        fill: #614637;
      }

      .cls-11 {
        fill: #5f3426;
      }

      .cls-12 {
        fill: #785d51;
      }

      .cls-13 {
        fill: #263722;
      }

      .cls-14 {
        fill: #4b251e;
      }

      .cls-15 {
        fill: #88a190;
      }

      .cls-16 {
        fill: #876c5c;
      }

      .cls-17 {
        fill: #a2bcb7;
      }

      .cls-18 {
        fill: #311817;
      }

      .cls-19 {
        fill: #1b151a;
      }

      .cls-20 {
        fill: #191919;
      }

      .cls-21 {
        fill: #18151a;
      }

      .cls-22 {
        fill: #453734;
      }

      .cls-23 {
        fill: #414042;
      }

      .cls-24 {
        fill: #a87456;
      }

      .cls-25 {
        fill: #210f13;
      }

      .cls-26 {
        fill: #c4b5ab;
      }

      .cls-27 {
        fill: #d1868b;
      }

      .cls-28 {
        fill: #e0b5a9;
      }

      .cls-29 {
        fill: #c5bab2;
      }

      .cls-30 {
        fill: #e2decf;
      }

      .cls-31 {
        fill: #d5a68a;
      }

      .cls-32 {
        fill: #d6b2a8;
      }

      .cls-33 {
        fill: #db999a;
      }

      .cls-34 {
        fill: #bdb3ac;
      }

      .cls-35 {
        fill: #b37f73;
      }

      .cls-36 {
        fill: #a85750;
      }

      .cls-37 {
        fill: #b8916e;
      }

      .cls-38 {
        fill: #c39a85;
      }

      .cls-39 {
        fill: #8eb3ad;
      }

      .cls-40 {
        fill: #a16065;
      }

      .cls-41 {
        fill: #f1f2f2;
      }

      .cls-42 {
        fill: #fff;
      }

      .cls-43 {
        fill: #e5ded4;
      }

      .cls-44 {
        fill: #e6e7e8;
      }

      .cls-45 {
        fill: #f4f1df;
      }

      .cls-3 {
        stroke: #453734;
      }

      .cls-4 {
        stroke: #a16065;
      }

      .cls-5 {
        stroke: #9c726b;
      }
    </style>
  </defs>
  <g id="Original_billede" data-name="Original billede">
    <image class="cls-7" width="2106" height="2106" transform="scale(.17)" xlink:href="../../../../../../../Downloads/Snapseed 3.jpg"/>
  </g>
  <g id="Layer_5" data-name="Layer 5">
    <rect class="cls-13" width="355.99" height="355.99"/>
  </g>
  <g id="Skin">
    <path class="cls-38" d="m220.05,76.51c4.58,7.09,7.81,16.07,8.5,17.55,12.08,25.81,2.86,20.74,7.53,36.12,4.67,15.37-6.59,31.28-6.59,31.28l-6.63,70.38-3.66,73.31-57.89,10.57-15.69-8.53,2.34-4.79,1.9-52.9,12.56-31.7,2.67-14.21-5.35-33.43-2.51-2.67c-3.18.84-16.05-22.57-16.05-22.57,0,0,7.71-65.18,10.68-73.02,2.97-7.84,7.01-10.57,7.01-10.57,10.01-14.21,22.9-6.22,22.54-3.26,6.63-15.51,28.06,2.1,38.63,18.46Zm-21.67,272.12l-25.37-1.4-34.55-2.81s-20.13-2.06-30.15-5.62-27.9-6.93-27.9-6.93v-1.22c-1.78-3.37,11.7-40.16,11.7-40.16l8.14-29.02c2.53,0,10.58-4.77,10.58-4.77,1.69.37,10.49-12.55,10.49-12.55.84,0,7.02-9.27,7.02-9.27,0-1.69,5.71-7.58,5.71-7.58,5.71-5.52,4.68-9.27,4.68-9.27-1.5-.09-1.69-8.89-1.69-8.89,1.69-.94-.09-8.89-.09-8.89l-1.12-1.03-2.62,1.31.66-1.12c.56-2.81,7.21-7.21,11.42-17.32,4.21-10.11-6.37-5.34-6.37-5.34l-5.71,6.18s-7.68,12.36-8.71,11.23-6.55,8.43-6.55,8.43l-3.74,6.27c-2.06,3.46-3.18-.56-3.18-.56,4.31-1.69,9.83-18.35,9.83-18.35l2.15-3.56,3.37-6.46,5.9-13.2c.09-9.46-6.46-4.21-6.46-4.21l-14.23,23.5-8.43,18.82-1.5.09c2.15-.28,6.27-16.66,6.27-16.66l10.67-19.29c2.71-12.08-6.93-5.24-6.93-5.24l-7.49,12.64c2.43-8.52-5.8-2.43-5.8-2.43l-6.74,9.46s-9.92,20.6-14.23,25.37-6.37,38.1-6.37,38.1l-6.18,18.44c1.31,3.18-8.33,24.72-8.33,24.72l-21.06,44.84s-14.32.19-15.73,2.34c-1.4,2.15-19.75,7.85-19.75,7.85v10.93h263.11c4.44,0,34.97-38.44,34.97-38.44l15.59,6.52c2.93,1.98,7.84-13.99,6.17-19.18s-.03-29.11-.03-29.11c0,0,.4-13.29-1.84-50.82s-46.49-19.04-46.49-19.04l-72.25,140.58-.86,2.13Zm-72.23-131.38c-1.7.18-4.91,6.49-4.91,6.49l-1.46.23,3.8-9.77,3.22-3.22c-1.58,2.75-.64,6.26-.64,6.26Z"/>
    <path class="cls-35" d="m213,114.65c-9.8,4.95-16.21-.83-16.21-.83,0,0,8.72,2.25,14.64.8s1.57.02,1.57.02Z"/>
    <path class="cls-35" d="m172,113.82s-4.2,7.08-17.46,3.98c0,0,13.98-.91,17.46-3.98Z"/>
    <path class="cls-6" d="m196.34,110.48s2.99-11.96,19.26-3.01c0,0,2.83,1.95,6.16,1.82,0,0-9.12-.2-10.22-1.75-1.09-1.55-7.92-3.54-15.19,2.94Z"/>
    <path class="cls-14" d="m215.46,107.92c-1.27.29-2.63.15-3.89-.16-2.2-1.49-4.92-2.42-7.56-1.81-2.6.56-4.89,2.34-6.44,4.46-.52.37-1.78,1.27-2.29,1.64,1.76-10.02,12.52-8.83,19.6-5.36-5-1.73-11.38-3.56-15.95.02-1.38,1.14-2.37,2.82-2.72,4.54l-.58-.36,1.47-1.04c.4-.66,1.92-2.15,2.94-2.83,3.46-2.66,8.42-2.22,11.69.52.97.26,2.53.58,3.73.39h0Z"/>
    <path class="cls-6" d="m197.31,110.14s12.93-.83,14.34-2.5l1.82.8s-11.22,3.94-16.16,1.7Z"/>
    <path class="cls-14" d="m151.97,110.46c6.15-6.71,14.54-6.25,19.24,1.73-2.52-3.18-6.3-5.98-10.52-5.67-3.29.13-6.16,2.03-8.72,3.94h0Z"/>
    <path class="cls-6" d="m170.96,111.7s-8.78-11.95-19.97,0c0,0,13.95-3.5,19.97,0Z"/>
    <path class="cls-6" d="m156.37,110.47c.08.32.36.48.62.6.85.33,1.79.38,2.7.47,3.76.28,7.49.22,11.27.65-2.53.65-13.87,1.32-14.6-1.72h0Z"/>
    <path class="cls-14" d="m165.12,107.31c-3.3-.57-6.61.51-8.54,3.29,0,0-.06.08-.06.08-.47.16-.93.3-1.42.36-.46.05-.97.08-1.37-.17.45.11.89.01,1.31-.12.42-.14.84-.31,1.22-.51l-.11.09c1.6-3.17,5.81-4.57,8.97-3.01h0Z"/>
    <path class="cls-32" d="m197.93,113.55c.61-.11,13.29,1.1,16.76-.75,0,0-8.07,5.9-16.76.75Z"/>
    <path class="cls-32" d="m171.54,113.82s-15.2,4.81-16.48,3.01c0,0,7.62,4.12,16.48-3.01Z"/>
    <g>
      <path class="cls-14" d="m179.29,137.42s-4.36-2.77-6.69,0c0,0,1.94-1.37,6.69,0Z"/>
      <path class="cls-14" d="m185.94,137.81s2.03-3.48,8.9-1.63c0,0-6.78-.48-8.9,1.63Z"/>
      <path class="cls-6" d="m171.29,128.03l-.33.07c-16.68,14.42-12.2,20.77-12.2,20.77-1.47-7.76,10.03-18.45,12.26-20.44.06-.06.12-.11.17-.15.13-.12.21-.18.21-.18,0,0-6.48,5.96.65,9.31,0,0-6.01-3.25-.76-8.87"/>
      <path class="cls-1" d="m194.13,126.47s8.79,4.85.71,10.17c0,0,7.19-4.04-.71-10.17Z"/>
      <path class="cls-6" d="m194.61,126.24s12.21,10.01,14.17,9.4c0,0-2.8.33-5.89-2.69,0,0,9.87,8.08,10.52,10.65,0,0,.94,4.27-.78,4.79,0,0,1.59-1.84.39-4.7-1.2-2.85-10.27-10.51-10.27-10.51l-8.12-6.93Z"/>
      <path class="cls-6" d="m179.29,137.81s2.47,3.16,6.14,0c0,0-3.48,2.36-5.8,0h-.34Z"/>
      <path class="cls-6" d="m192.77,125.57s-10.34-8.52-.36-21.02c0,0-8.6,9.24.18,20.2l.19.82Z"/>
      <path class="cls-35" d="m177.63,127.57c-1.67,2.07-3.58,5.26-.86,7.27-3.42-1.52-1.46-5.68.86-7.27h0Z"/>
      <path class="cls-35" d="m187.82,127.57c1.26,1.81,2.9,5.95,0,7.01,2.28-1.58.55-4.87,0-7.01h0Z"/>
      <path class="cls-32" d="m185.03,129.72s-4.32-3.24-6.1,0c0,0,1.81,3.67,6.1,0Z"/>
      <path class="cls-32" d="m184.16,122.75s-2.67-13.63.87-19.75c0,0-2.55-3.82-4.15,0,0,0,2.85,19,1.1,19.75,0,0,.65,3.63,2.18,0Z"/>
    </g>
    <g>
      <path class="cls-6" d="m178,54.88s-29.2-6.86-26.86,26.62c0,0,1.24,7.68,2.47,1.78,1.24-5.9-.03-15.92,10.9-24.29,0,0,9-4.67,12.16-1.92,3.16,2.74,1.34-2.2,1.34-2.2Z"/>
      <path class="cls-6" d="m187.16,52.83s26.77-7.08,45.13,46.47c0,0,12.43,47.42,3.06,51.82,0,0,.38-32.32-3.82-35.57-4.21-3.25-8.03-28.68-8.03-28.68,0,0-15.3-24.54-36.33-34.04Z"/>
      <path class="cls-6" d="m173.27,179.26s-16.14-11.47-19.53-30.07l-6.83-22.71-3.12,22.18s13.99,26.42,29.49,30.61Z"/>
      <path class="cls-6" d="m173.27,179.26s10.71,6.05,20.97.35c.46-.25.89-.55,1.3-.87,2.88-2.21,13.83-11.31,18.07-24.91,1.5-4.8,5.16-8.6,9.8-10.53,1.27-.53,2.6-1.23,3.92-2.14,7.96-5.51,6.25-13.93,7.18-13.59,4.84,1.79-.32,20.26-2.38,26.96-.5,1.62-1.35,3.1-2.51,4.34-6.04,6.45-26.51,26.74-41.76,22.93"/>
    </g>
    <path class="cls-11" d="m159.87,169.77s11.58,10.38,16.66,10.55c1.64.06,5.15,1.03,9.18,1.3,8.42.57,18.95-2.31,19.68-4.97,0,0,26.6-19.83,26.91-23.01.31-3.18-3.85,19.38-3.85,19.38,0,0-16.11,8.84-21.9,8.6s-18,1.42-18,1.42l-12.75.39-14.45-4.25-1.47-9.42Z"/>
    <path class="cls-6" d="m228.45,167.13l-25.75,14.49-13.09.65-13.07.29-14.42-2.04,3.01,29.41s12.38,12.19,16.77,11.9c0,0-7.02-11.02-3.71-14.83,0,0-7.71-11.89-.68-13.11,0,0,52.63-5.11,50.95-26.76Z"/>
    <path class="cls-11" d="m166.15,179.91c.77.23,1.25.99,1.12,1.79-.27,1.54.44,8.2-1.95,14.49-3.2,8.42,17.73,7.83.43,12.11l-4.74-29.9,5.15,1.52Z"/>
    <path class="cls-11" d="m166.64,185.53s1.87-5.19,4.52-3.83l-4.95-2.1.43,5.93Z"/>
    <path class="cls-6" d="m165.12,209.93l16.77,11.9-22.51,15.59-1.5,1.04-4.64,3.21s5.18-31.18,11.87-31.73Z"/>
    <path class="cls-5" d="m104.94,174.93s-10.94,29.04-11.83,29.05"/>
    <path class="cls-6" d="m101.28,205.14l16.58-31.96s-16.5,38.67-16.58,31.96Z"/>
    <g>
      <path class="cls-28" d="m130.69,216.06s-4.04-7.94,4.26-16.38l1.29-.24s1.57,1.67.82,9.7l.6,5.37s2.95,5.75-.21,7.87c-3.15,2.12-6.76-6.33-6.76-6.33Z"/>
      <g>
        <path class="cls-28" d="m127.02,217.51l-6.89,8.29-2.27.73-2.82-3.67s-2.84-8.93-18.59-2.48c0,0-14.69-15.16-21.14-1.29l-1.49,1.99s-4.36,22.59-2.41,25.19c1.95,2.59,32.75,14.68,32.75,14.68,0,0,10.41-5.65,11.92-10.59,0,0,7.73-10.74,9.17-11.3,0,0,11.39-9.19,12.2-16.68,1.34-12.45.33-7.08-4.36-6.33-1.77.28-4.63-.99-6.07,1.45Z"/>
        <path class="cls-28" d="m104.17,260.96s-3.2,1.13-3.9.52c-29.35-25.25-41.99,71.35-41.99,71.35,0,0-15.4,4.36-23.15,1.61,0,0,25.76-52.96,25.91-53.42s10.03-34.79,8.47-35.88,1.41-8.91,1.41-8.91l33.25,24.73Z"/>
        <path class="cls-28" d="m73.83,221.09s2.14-14,6.19-16.92,13.57-26.82,19.49-31.75c0,0,4.2-2.52,4.82,0,.62,2.52-12.45,32.14-12.45,32.14,0,0,1.59.07,1.89-1.07s10.73-25.91,10.58-26.51,1.2-4.31,7.34-13.24c0,0,4.24-2.81,5.09-1.02s-18.64,42.12-18.64,42.12c0,0,1.98,2.14,3.51,1.07s8.73-15.62,8.73-15.62l15.45-27.77s5.05-4.43,5.05.5-19.81,44.87-22.26,45.6,3.92,2.39,4.76,1.32,5.65-14.26,7.54-13.91,16.83-20.96,19.35-21.75,5.22,1.9,5.22,1.9c0,0-21.33,37.03-27.14,37.05l5.24.98-5.72,15.05-44.03-8.18Z"/>
      </g>
    </g>
    <g>
      <path class="cls-6" d="m134.95,199.68s-9.4,1.91-9.26,17c0,0,1.6-1.75,2.38,0,0,0-2.92-10.13,6.89-17Z"/>
      <path class="cls-35" d="m128.62,216.68c1.32.54,2.7.8,4.13.75-1.38.4-2.97.1-4.13-.75h0Z"/>
      <path class="cls-35" d="m116.09,208.66c2.78-.45,5.32.3,6.48,3.07.14.34.24.7.37,1.04-1.25-3.2-3.54-4.31-6.85-4.12h0Z"/>
      <path class="cls-35" d="m124.15,196.03c2.67.24,6.52,1.26,7.02,4.33-1.18-2.73-4.47-3.35-7.02-4.33h0Z"/>
      <path class="cls-35" d="m103.97,204.82c2.31-.85,5.69-.27,6.3,2.49-.95-2.55-3.93-2.96-6.3-2.49h0Z"/>
      <path class="cls-35" d="m118.34,193.29c-2.11-1.44-5.23-4.27-7.55-1.79,1.86-3.18,5.97-.28,7.55,1.79h0Z"/>
      <path class="cls-35" d="m138.79,189.55c-1.18-2.44-3.02-5.45-6.15-4.93,3.14-1.31,5.69,2.16,6.15,4.93h0Z"/>
      <path class="cls-35" d="m119.17,226.53c4.78.13,5.44,6.23,4.87,9.91-.1.58-.19,1.16-.3,1.73.02-1.17.11-2.33.07-3.49-.04-3.2-.87-7.6-4.64-8.16h0Z"/>
      <path class="cls-35" d="m118.62,223.49c-6.74-2.03-13.57,1.98-17.18,7.6-1.27,1.86-2.33,3.86-3.31,5.9.81-2.11,1.76-4.19,2.99-6.11,3.47-5.83,10.78-10.03,17.5-7.39h0Z"/>
      <path class="cls-35" d="m108.38,209.93c-3.2,6.79-10.92,13.05-17.74,6.75.77.51,1.53,1.03,2.38,1.38,6.43,3.06,12.23-3.08,15.36-8.13h0Z"/>
      <path class="cls-35" d="m115.15,222.48c-7.37.2-15.67-.01-21.97,4.36,5.61-4.87,14.91-4.9,21.97-4.36h0Z"/>
      <path class="cls-35" d="m100.9,223.4c-1.34,2.3-3.28,5.47-4.46,7.81-1.18,2.55-3.14,5.48-2.52,8.38-1.58-4.2,4.43-12.79,6.99-16.19h0Z"/>
      <path class="cls-35" d="m87.92,193.29c2.48-1.54,6.19-1.23,7.9,1.29-2.19-1.93-5.17-2.12-7.9-1.29h0Z"/>
      <path class="cls-35" d="m94.06,183.03c1.86-1.28,4.8-1.15,6.16.79-1.81-1.32-4.03-1.36-6.16-.79h0Z"/>
      <path class="cls-35" d="m106.32,175.4c1.84-1.94,5.12-1.7,6.79.39,1.3,1.68-.24-.03-1.01-.43-1.77-1.18-3.94-1.03-5.78.04h0Z"/>
      <path class="cls-35" d="m101.28,187c2.12-1.28,6.79-2.37,7.33,1.08-1.22-2.96-4.94-1.58-7.33-1.08h0Z"/>
      <path class="cls-35" d="m94.53,203.99c1.67-.94,4.75-1.35,5.59.85-1.4-1.65-3.68-1.05-5.59-.85h0Z"/>
      <path class="cls-35" d="m81.96,204.16c2.76-1.66,7.35-3.52,9.92-.68-2.96-2.17-6.8-.31-9.92.68h0Z"/>
      <path class="cls-35" d="m78.52,245.13c3.49-1.1,7.02-2.05,10.3-3.66,1.01-.56,2.24-1.18,2.51-2.41-.53,3.65-9.63,5.57-12.81,6.06h0Z"/>
    </g>
    <g>
      <path class="cls-31" d="m24.85,337.24s-6.44,3.05-6.85,4.22-7.2,4.08-7.2,4.08c-1.94.07-10.8,10.44-10.8,10.44h32.26c7.67-12.48,39.78-8.25,39.78-8.25,2.77-8.25,141.62,8.25,141.62,8.25,25.92-68.15,70.02-87.7,68.72-84.38-1.3,3.33-32.89.86-32.89.86-7.84.49-20.96,26.98-20.96,26.98l-6.14,9.12-23.72,40.6-21.24-1.42-41.17-2.7-18.42-3.34s-19.11-4.78-27.61-6.9c-8.49-2.12-10.09-2.27-10.09-2.27,0,0-10.94-2.57-22.05,1.41-11.12,3.98-22.96,1.41-22.96,1.41l-11.21,1.9c-3.07-1.22-9.66,4.46-9.66,4.46-3.73.24-14.26,4.91-14.26,4.91v6.45"/>
      <polygon class="cls-31" points="287.59 276.01 305.99 256.06 313.61 223.3 287.59 200.52 272.24 207.84 234.26 289.08 287.59 276.01"/>
    </g>
    <path class="cls-6" d="m318.08,282.88c-2.49,6.29-5.37,12.42-8.49,18.42-3.09,5.47-5.85,11.5-10.54,15.81-.35.24-.76.47-1.19.42.43,0,.79-.27,1.09-.54,4.2-4.7,6.68-10.69,9.75-16.15,2.65-5.07,6.71-12.97,9.37-17.96h0Z"/>
    <path class="cls-6" d="m151.83,306.4s13.75-19.88,12.17-24.61-6.07-30.18-6.07-30.18l1.45-14.19-6.13,4.25-7.63,65.53,6.21-.79Z"/>
    <path class="cls-6" d="m200.81,203.32s-4.49,28.88,3.13,29.79"/>
  </g>
  <g id="Face">
    <path class="cls-22" d="m195.85,99.75c-.87-.58-4.92-3.95-3.21-4.85-1.4.84,2.57,4.03,3.21,4.85h0Z"/>
    <path class="cls-22" d="m196.03,99.56c-1.12-.87-3.81-3.14-2.75-4.68,0,0,.32-.22.32-.22-1.56,1.21,1.61,3.9,2.43,4.9h0Z"/>
    <path class="cls-22" d="m196.1,99.45s-3.21-2.68-1.73-4.88c1.47-2.19,16.83-3.04,16.83-3.04,0,0,5.34-1.24,10.67,10.19,0,0-6.24-11.19-25.77-2.28Z"/>
    <path class="cls-22" d="m172.72,100.45c.16-1.13.44-2.24.44-3.38-.02-.36-.03-.77-.35-1.01.38.17.49.63.54,1,.09,1.16-.19,2.33-.63,3.39h0Z"/>
    <path class="cls-22" d="m172.4,100.24c.02-1.48.36-3.39-.97-4.4,1.59.73,1.36,3,.97,4.4h0Z"/>
    <path class="cls-22" d="m172.39,100.07s.02-2.79-2.79-4.23c.04-.43-11.05-.63-12.27.38-.99.83-5.01,3.03-5.01,3.03l-.37,3.2,5.06-2.18s7.59-3.08,15.36-.22Z"/>
    <path class="cls-42" d="m197.31,110.14s6.13-7.85,14.12-2.47c0,0-3.47,3.28-11.45,2.09l-2.67.38Z"/>
    <g>
      <path class="cls-18" d="m202.15,106.5s3.15-.12,3.54.49l.11.5v.17s-1.28-.58-4.05,0c0,0-.77,1.97.84,2.36s6.28-.82,6.28-.82c0,0,.91-1.96-.26-2.72,0,0-3.08-1.52-6.45.01Z"/>
      <path class="cls-9" d="m202.26,108.04s-.52,1.07.35,1.3.81.75,5.46-.49c0,0,.78-1.36.17-1.73s-2.36-1.04-2.96-.91c0,0,1.08.51.92.73l.06,1.28s-2.96-.88-4.01-.17Z"/>
      <path class="cls-19" d="m204.83,108.6s1.26.83,1.86-.21c0,0,.57-.78-.22-1.09h-.82v.32s-.5-.12-.5-.12c0,0-.97.56-.32,1.1Z"/>
    </g>
    <path class="cls-42" d="m170.96,112.19s-7.24-9.46-14.6-1.72c0,0,2.88,2,4.89,1.72h9.71Z"/>
    <g>
      <path class="cls-18" d="m164.01,109.39s-2.57-1.5-3.73-.7c0,0-1.04.24,0-.6,1.04-.85,5.71-.66,6.47.23s1.68,3.91.37,3.88-4.83.57-7.7-.22c0,0-.33-2.27.73-2.29s3.87-.3,3.87-.3Z"/>
      <path class="cls-9" d="m160.26,110.24s-.13.98.07,1.15,3.24.86,5.4,0c0,0,1.01-.12,1.11.03s.37-1.97-.4-2.72-4.52-.71-4.47-.64,2.78.93,2.82,1.32.07.24.07.24c0,0-3.53.84-4.59.62Z"/>
      <path class="cls-19" d="m162.67,110.75s1.03.86,1.92-.19c.89-1.05-.22-1.67-.22-1.67,0,0-.91-.34-1.01.27l.65.22-.9.09s-1.11.5-.44,1.28Z"/>
    </g>
    <path class="cls-19" d="m211.43,107.67c-5.03-2.67-10.1-1.3-14.12,2.47.69-1.15,1.64-2.16,2.74-2.97,3.32-2.63,8.31-2.44,11.38.49h0Z"/>
    <path class="cls-19" d="m170.96,112.19c-3.45-3.63-8.23-5.89-12.82-2.9-.61.35-1.15.8-1.78,1.18.47-.54.96-1.08,1.5-1.58,4.46-3.94,10.5-1.5,13.1,3.3h0Z"/>
    <path class="cls-25" d="m163.5,149.09s8.7-3.9,16.41-1.39l4.9.13s5.42-2.09,9.73-1.26,12.38.33,12.38.33c0,0,1.2.64-.58,2.52-1.78,1.88-17.79,5.81-17.79,5.81,0,0-14.16,1.25-15.72-1.45,0,0-.02-2.72-7.95-3.66l-1.36-1.03Z"/>
    <path class="cls-36" d="m200.93,147.21l-3.61-1.61h-7.96l-8.97.17-7.24.16-2.39,1.76s1.25,1.89,1.15,2.47.35-2.4.96-2.63,1.99.28,2.53,2.7l.26.98s.99-6.44,3.53-.61c0,0,1.54-5.9,5.35-.06,0,0,2.56-6,5.42-.87l.26.87s1.89-5.16,3.98-.9v.8s2.08-6.76,4.68-1.64l.19.96s.64-2.05,1.25-2.31l.61-.26"/>
    <g>
      <g>
        <path class="cls-4" d="m163.5,149.09s3.24-6.42,19.13-4.7l.79.46s8.6-3.37,14.69-.76c0,0,8.74,2.12,9.4,2s-.6.81-.6.81c0,0-10.92.26-12.38-.33s-6.62-.26-9.73,1.26l-4.9-.13s-6.02-3.05-16.41,1.39Z"/>
        <path class="cls-4" d="m164.87,150.12s6.82.76,7.95,3.66,15.72,1.45,15.72,1.45c0,0,15.96-3.91,17.79-5.81,1.83-1.89-8.96,8.08-8.96,8.08,0,0-9.6,5.43-13.82,3.91,0,0-9.97,1.14-12.18-2.21,0,0-.38,1.26-6.5-9.09Z"/>
      </g>
      <path class="cls-40" d="m163.7,149.09s9.84-4.23,16.41-1.39l4.9.13s7.23-2.53,9.7-.92h12.41s.6-.82.6-.82l-12.91-2.14-10.24,1.29-4.66-.48-6.7-.05-6.98,2.19-2.52,2.18Z"/>
      <path class="cls-27" d="m163.5,149.09s2.4-1,3.09-1.93c0,0,2.74-.09,3.81-.87,0,0,4.73-.19,4.74-1.25,0,0,3.65,1.45,4.35.43,0,0,3.28,1.58,4.24.63,0,0,4.23.55,6.33-1.06,0,0,5.91.43,6-.29l11.44,1.34-9.4-2s-6.61-2.44-14.69.76l-.79-.46s-14.43-2.18-19.13,4.7Z"/>
      <path class="cls-27" d="m164.87,150.12l7.3,8.58,5.05,1.68,14.04-.99,13.77-9.15s-14.65,4.73-16.48,5c-1.93.29-14.35,1.31-15.72-1.45s-7.95-3.66-7.95-3.66Z"/>
      <path class="cls-40" d="m164.87,150.12s7.44,9.44,10.64,8.97,14.19,1.69,17.8-1.4c0,0,11.72-7.46,13.03-8.27,1.12-.69-8.96,8.08-8.96,8.08,0,0-11.32,6.44-15.58,4.18,0,0-10.15,1.34-11.1-2.84,0,0-5.88-7.75-5.83-8.73Z"/>
      <path class="cls-33" d="m172.33,157.43s11.45,4.05,23.67-1.92c0,0-6.94,5-9.72,4.65,0,0-13.88,1.06-13.95-2.73Z"/>
    </g>
    <g>
      <g>
        <path class="cls-45" d="m170.6,148.01s-.97,2.24.83,4.3l.83.32s-.51-1.62-.34-2.48c0,0-.67-3.12-1.32-2.15Z"/>
        <path class="cls-45" d="m175.55,153.48s-2.96.55-3.3-1c-.34-1.55-.83-4.86.6-5.1s1.4,0,2.87,3.34l-.18,2.76Z"/>
        <path class="cls-45" d="m179.5,154s-2.36.88-3.95-.35c0,0-.12-5.07,1.61-5.47s2.23,3.52,2.23,3.52l.12,2.3Z"/>
        <path class="cls-45" d="m184.45,150.08v4.23l-.65.43s-3.68.41-3.86,0-.44-.74-.44-.74l-.21-3.69s1.22-5.24,5.17-.23Z"/>
        <path class="cls-45" d="m184.6,154.3s2.47,1.49,5.21-.56l.26-5.23s-3.7-3.16-5.62,1.89l.15,3.9Z"/>
        <path class="cls-45" d="m194.21,153.14s-4.14,1.38-4.4.61l.43-3.96s2.3-4.39,3.97-.26v3.61Z"/>
        <path class="cls-45" d="m198.9,151.85l.22-3.23s-2.61-4.87-4.81,1.1l-.09,3.41s4.19.54,4.69-1.29Z"/>
        <path class="cls-45" d="m201.48,150.68s.79-3.25-.55-3.53c0,0-1.72.13-1.81,1.48l-.22,3.23s1.62.13,2.58-1.17Z"/>
      </g>
      <path class="cls-29" d="m172.09,148.04c-.11,1.67-.34,3.45.39,5.02-1.05-1.42-.84-3.42-.39-5.02h0Z"/>
      <path class="cls-29" d="m170.5,148.04c.07,1.46.06,3.02.93,4.28-1.16-1.04-1.21-2.85-.93-4.28h0Z"/>
      <path class="cls-29" d="m176.58,148.55c-.7,1.61-.93,3.34-1.02,5.09-.26-1.73.01-3.64,1.02-5.09h0Z"/>
      <path class="cls-29" d="m179.62,149.27c-.3,1.81-.89,4.01.39,5.56-1.59-1.34-1.04-3.86-.39-5.56h0Z"/>
      <path class="cls-29" d="m189.82,148.32c.91,1.79.47,3.98-.22,5.78.35-1.9.79-3.89.22-5.78h0Z"/>
      <path class="cls-29" d="m193.79,148.52c.77,1.39,1.01,3.27.19,4.69.49-1.55.25-3.15-.19-4.69h0Z"/>
      <path class="cls-29" d="m197.88,147.15c1.75,1.18,2,3.78.64,5.36,1.01-1.73.81-3.93-.64-5.36h0Z"/>
      <path class="cls-29" d="m200.93,147.15c.19-.1.36.1.45.23.52.98.76,2.71-.1,3.55.56-1.03.31-2.41,0-3.49-.06-.14-.15-.34-.35-.29h0Z"/>
      <path class="cls-29" d="m184.45,149.77c.16,1.55.08,3.18,0,4.74-.25-1.57-.18-3.16,0-4.74h0Z"/>
    </g>
    <path class="cls-30" d="m172.94,147.39s-.12,5.57,1.08,6.04c0,0-.98,0-1.69-.65s-.36-5.11-.05-5.03c0,0,.24-.32.66-.36Z"/>
    <path class="cls-30" d="m170.62,148l1.23,4.5-.52-.29s-1.39-2.2-.71-4.21Z"/>
    <path class="cls-30" d="m177.53,148.23s-1.72,5.64-.15,6.03c0,0-.83.11-1.84-.62,0,0,.33-4.33,1.2-5.23,0,0,.55-.48.79-.18Z"/>
    <path class="cls-41" d="m180.57,148.74s-2.01,4.84-.46,5.07c0,0-.99-.78.46-5.07Z"/>
    <path class="cls-30" d="m192.53,147.75s1.21,5.79-.1,5.81c0,0,.67.14,1.55-.35,0,0,.76-2.42-.29-4.69,0,0-.79-1.03-1.17-.77Z"/>
    <path class="cls-30" d="m196.93,146.75s1.34,6.38-.12,6.38c0,0,1.41-.13,1.7-.63,0,0,1.64-2.79-.52-5.26,0,0-.81-.65-1.07-.49Z"/>
    <path class="cls-30" d="m200.3,147.28s1.3,2.99,0,4.31c0,0,.52-.08.98-.66,0,0,.86-1.36-.17-3.71,0,0,.23-.29-.81.06Z"/>
    <path class="cls-41" d="m186.28,148.88s-1.08,4.16-.44,5.07c0,0-1.85-1.77.44-5.07Z"/>
  </g>
  <g id="Clothing">
    <path class="cls-20" d="m146.65,306.7s18.26-1.79,19.38,3.02h3.04l7.91-5.02s10.14-1.31,10.47-2.15,34.94,3.98,34.94,3.98l-23.35,41.23-.68.77s-55.9-3.44-61.78-4.18c0,0-7.65-22.16,5.76-28.82,0,0,2.2-9.21,4.3-8.82Zm117.06,49.3h51.67s-2.83-4.49-1.77-5.37.88-4.07.88-4.07c0,0-4.42-5.49-2.48-6.55s.88-4.6.35-6.55,2.12-9.2,2.12-9.2l-16.63-6.72c-4.42,7.96-34.15,38.46-34.15,38.46Z"/>
    <path class="cls-39" d="m70.39,246.14s1.59-7.52.34-8.92c0,0,3.01-4.99,1.27-5.6s-4.87-1.97-6.5-.05c0,0-3.75,2.41-4.08,2.58s-5.53,2.62-5.76,4.04c0,0-6.25-2.89-5.97.17,0,0-5.07,3.94-3.69,10.37,0,0,1.63,4.21,1.71,5.79.09,1.57,1.85,3.15,2.89,2.74,0,0,3.13,3.68,4.77,2.58,0,0,8.38,5.02,9.79,3.88,0,0,.98-1.09.59-2.25,0,0,6.93,1.21,8.7,5.67,0,0,3.67-1.79,4.58,3.67,0,0,7.47,8.12,13.74,5.83,0,0,3.78,5.82,5.83,5.19,0,0,1.76,8.56,4.45,5.28,0,0,4.75,2.09,5.11,1.76s5.65.65,5.34-16.62c0,0,8.73-3.79,2.31-15.15,0,0-1.07-2.51-3.34-1.62,0,0-3.31,1.58-3.25,2.97,0,0-3.93-.64-5.55,1.85,0,0-7.51-7.57-13.29-5.49,0,0-5.31-16-12.94-6.93,0,0-7.43.4-7.05-1.73Z"/>
    <g>
      <path class="cls-15" d="m92.24,257.28s6.12,10.56,5.34,11.98l5.42-1.29s-6.06-12.17-10.77-10.69Z"/>
      <path class="cls-15" d="m95.07,275.35s9.77-1.54,9.66-2.14,2.22,10.29-.95,10.7c0,0-7.18-8.93-8.71-8.56Z"/>
      <path class="cls-15" d="m104.67,262.16s4.38,3.62,5.15,8.94c0,0-1.13-11.74-5.15-8.94Z"/>
      <path class="cls-15" d="m86.12,264.91s2.08-11.44-7.29-9.01c0,0,.71,5.8-.36,5.83s-3.74,2.89-2.49,3.63,3.17,2.27,2.85,2.93,8.91,3.65,8.91,3.65c0,0,.64-7.52-1.62-7.03Z"/>
      <path class="cls-15" d="m70.07,251.96l3.75-.54s-1.25,5.93.98,7.57c0,0-4.85-4.07-4.74-7.03Z"/>
      <path class="cls-15" d="m56.62,242.66s-5.63,1.37-6.29-.3,4.11-3.15,4.06-3.25,3.4-.15,2.23,3.55Z"/>
      <path class="cls-15" d="m68.87,243.93s-4.79-2.97-6.6-2.27,4.53-5.36,6.6-4.72,0,6.99,0,6.99Z"/>
      <path class="cls-15" d="m59.57,243.93s8.32-.07,8.41,2.34c.09,2.41-7.95,1.32-8.41-2.34Z"/>
      <path class="cls-15" d="m113.42,262.73s1.07,7.61.3,7.73c0,0,2.67.24,2.5-4.69l-2.79-3.03Z"/>
    </g>
    <g>
      <path class="cls-8" d="m78.81,266.6s6.29-1.05,6.44-2.56c0,0,.81,3.78-5.11,4.33,0,0-1.44-.61-1.34-1.76Z"/>
      <path class="cls-8" d="m105.45,262.26s3.48,3.63,3.3,5.32c0,0-.24-5.04-3.3-5.32Z"/>
      <path class="cls-8" d="m92.77,257.57s6.09,10.29,5.29,11.09l2.27-.59s-5.77-11.32-7.57-10.5Z"/>
      <path class="cls-8" d="m96.3,275.64s8.44-1.42,8.37-1.76.94,4.44.26,4.67-5.93-.54-5.93-.54l-2.7-2.37Z"/>
      <path class="cls-8" d="m114.24,267.71s.4-1.86,1.55-1.64c0,0,.58,3.03-1.42,3.98,0,0-.4-1.92-.13-2.35Z"/>
      <path class="cls-8" d="m66.7,260.46s-6.96-6.82-9.84-5.25,7.8,6.25,7.8,6.25l.62-.5,1.41-.5Z"/>
    </g>
    <path class="cls-17" d="m83.77,246.69c-3.71,1.94-9.86,3.95-13.7,1.57,4.61.98,9.12-.9,13.7-1.57h0Z"/>
    <path class="cls-17" d="m49.21,243.43c2.72-.22,5.34,0,7.96-.51.82-.2,1.65-.46,2.16-1.26-.89,3.47-7.54,2.76-10.12,1.77h0Z"/>
    <path class="cls-17" d="m85.29,256.04c3.15-.96,9.69-1.78,11.94,1.15-.85-.61-1.84-.73-2.82-.86-3.04-.28-6.03-.09-9.12-.29h0Z"/>
    <path class="cls-17" d="m92.24,265.92c1.5,1.91,4.65,9.97.9,10.72.94-.46.98-1.46.93-2.34-.27-2.85-1.28-5.52-1.83-8.38h0Z"/>
    <path class="cls-43" d="m59.24,284.37s-3.76,7.07,2.59,13.31c0,0,1.14.26.71.88,0,0,1.25-.08.99.75,0,0,1.65.23,1.22,1.3l-.22.74,1.72-.21s2.04.73,3.13,2.55l-.12,1.25.53.45s.78-.2.66.47.33.37.33.37c0,0,1.05-.61.96.43s.19.23.19.23c0,0,1.07-.32.98.93,0,0,4.02,2.69,4.75,2.57,0,0,6.87,1.55,8.01-.73,0,0,2.89-2.5,1.38-3.64,0,0-.56-1.43.68-2.36,0,0,.61-.16.94,3.61,0,0,.96,3.23-3.95,5.05,0,0-7.65.19-8.04,0s-4.54-1.68-4.54-2.36l-.14-.51s-1.26.65-1.22-.57c0,0-1.32.38-1.25-.49s-.14-.25-.14-.25c0,0-1.15-.09-1.09-.5s-.02-.33-.02-.33l-1.04-.64-.75.26-.67.26s-2.79-1.35-2.73-2.33l-.2-.44.26-1.25-.1-.53s-1.19-.2-.99-.87-.2-.18-.2-.18c0,0-.69.18-.59-.65s0-.51,0-.51c0,0-1.11.14-.93-.36s-.12-.53-.12-.53l-2.26-3.65-1.67-5s-1.49-6.08,2.95-6.56Z"/>
    <g>
      <polygon class="cls-34" points="63.2 302.71 64.38 301.51 65.41 301.51 63.32 303.25 63.2 302.71"/>
      <path class="cls-34" d="m61.44,300.25c.06-.56.38-1.42,1.03-1.43-.5.34-.62.98-1.03,1.43h0Z"/>
      <polygon class="cls-34" points="69.64 305.49 68.3 307.33 67.29 306.57 69 304.86 69.64 305.49"/>
      <path class="cls-34" d="m69.64,307.85c.13-.56.41-1.05.83-1.44-.13.56-.41,1.05-.83,1.44h0Z"/>
      <path class="cls-34" d="m70.88,308.73c.12-.55.39-1.02.8-1.4-.12.55-.39,1.02-.8,1.4h0Z"/>
      <path class="cls-34" d="m62.21,301.51c.15-.73.53-1.78,1.36-1.89-.67.44-.87,1.27-1.36,1.89h0Z"/>
      <path class="cls-34" d="m60.45,299.61c.2-.59.56-1.13,1.04-1.52.16-.12.4-.26.6-.15-.68.19-1.08,1.2-1.64,1.67h0Z"/>
      <polygon class="cls-34" points="72.14 309.32 72.84 308.03 73.36 308.34 72.4 309.81 72.14 309.32"/>
      <path class="cls-34" d="m63.2,304.86s-.13.82,2.63,2.21c0,0-.58-.85-.2-1.2s1.49-1.95,1.49-1.95l-1.78,1.74-.68-.8,1.44-1.89-2.9,1.89Z"/>
    </g>
    <g>
      <path class="cls-41" d="m63.2,304.27s2.7-2.59,2.6-2.76-.86,2.94-2.6,2.76Z"/>
      <path class="cls-41" d="m60.59,300.05s.9-1.46,1.19-1.53-.69,1.59-1.19,1.53Z"/>
      <path class="cls-41" d="m61.44,301.01s1-1.75,1.26-1.73-.83,2.07-1.26,1.73Z"/>
      <path class="cls-41" d="m62.33,302.03s.97-1.95,1.38-1.78-1.11,2.01-1.38,1.78Z"/>
    </g>
    <path class="cls-2" d="m163.99,214.04s9.05,45.24,17.06,59.17l26.47-42.52"/>
    <path class="cls-16" d="m180.52,275.28s-1.86-2.45-3.41.28c-1.55,2.73,2.55,7.54,2.55,7.54,0,0,5.28-3.63,5.28-4.28s1.58-6.67-4.41-3.54Z"/>
    <path class="cls-16" d="m183,272.42s-.96.52-.37,1.24,2.76,1.73,3.69.6c.93-1.13-1.11-6.35-2.89-2.93l.12.81-.56.28Z"/>
    <line class="cls-2" x1="182.44" y1="271.61" x2="183.56" y2="272.14"/>
    <line class="cls-2" x1="181.05" y1="273.21" x2="180.52" y2="275.28"/>
    <path class="cls-12" d="m177.09,277.04s5.67,2.09,7.18,1.09l.38-.16-.15.71-4.7,3.78s-4-4.27-2.7-5.42Z"/>
    <path class="cls-44" d="m183.18,272.97h.43v.48h-.61s-.18-.28,0-.38l.18-.1Z"/>
    <path class="cls-44" d="m184.43,273.35h-.52s-.08.26,0,.4.47.04.47.04c0,0,.16-.44.05-.44Z"/>
    <path class="cls-44" d="m184.77,274.26s.06-.71.54-.31.07.36.07.36l-.61-.05Z"/>
    <path class="cls-44" d="m184.74,272.9s.33-.18.44,0,.19.57-.02.56-.63-.05-.55-.24.14-.32.14-.32Z"/>
    <path class="cls-44" d="m184.34,272.14s.12-.18.31,0,.32.3.15.45-.22.3-.41.23-.29-.68-.12-.68.07,0,.07,0Z"/>
    <path class="cls-44" d="m185.37,272.28s.48-.14.49.05.28.54,0,.55-.5-.04-.49-.25-.1-.32,0-.35Z"/>
    <path class="cls-44" d="m184.29,271.28c.17.32.44.14.47-.19s.24-.51-.1-.37-.59.15-.37.56Z"/>
    <path class="cls-44" d="m185.33,271.36s-.43-.22-.39.09-.17.57.1.53.47.06.5-.17-.07-.39-.21-.45Z"/>
    <path class="cls-26" d="m182.92,275.14s1.15-.54,1.25,0,.95,3.52,0,3.72c0,0-3.43,2.98-3.66,2.93s4.62-4.74,2.4-6.65Z"/>
    <path class="cls-43" d="m172.29,316.36c.39-1.16,1.41-2.47,2.83-2.38,1.38.17,2.52,1.49,2.48,2.88-.02.9-.43,1.7-.99,2.3.31-.75.48-1.55.4-2.27-.14-1.31-1.61-2.71-2.95-2.03-.65.31-1.24.89-1.77,1.51h0Z"/>
    <path class="cls-43" d="m173.17,328.92c1.21-.18,2.9.54,2.99,1.99.2,1.75-1.27,3.9-3.22,3.31-.38-.14-.88-.32-.99-.74.25.31.69.36,1.05.38,1.82.2,3.08-2.42,2.13-3.82-.42-.55-1.18-.91-1.96-1.12h0Z"/>
    <path class="cls-43" d="m156.44,319.16c-1.01-2.17,1.07-4.02,2.99-2.42-2.06-.15-2.57.32-2.99,2.42h0Z"/>
    <path class="cls-43" d="m156.41,331.77c-.38,1.16-.98,1.72-1.29,2.89-.82-1.03.16-2.58,1.29-2.89h0Z"/>
    <path class="cls-43" d="m156.41,336.23c.75-1.22,1.86-1.87,3.02-2.6-.34,1.37-1.7,2.25-3.02,2.6h0Z"/>
    <path class="cls-43" d="m173.61,346.09c.61-2.77,3.7-2.26,4.66,0,0,0-1.24-.75-1.24-.75-1.26-.76-2.36-.44-3.42.75h0Z"/>
    <path class="cls-23" d="m156.41,330.22c.59-.82,1.23-1.6,1.87-2.37l2.23-1.97c1.5-1.31,3-2.61,4.53-3.87,1.53-1.27,3.08-2.52,4.69-3.7,1.59-1.22,3.34-2.42,5.4-2.58-4.94,3.24-9.53,7.01-13.98,10.9,0,0-2.22,1.97-2.22,1.97-.83.55-1.67,1.1-2.54,1.62h0Z"/>
    <path class="cls-23" d="m158.62,316.93c.39.03.75.11,1.11.19l.81.6,1.63,1.19,1.63,1.19.82.59c.18.32.37.64.52,1-.39-.04-.75-.11-1.11-.19l-.82-.59-1.63-1.19-1.63-1.19-.82-.59c-.18-.32-.37-.64-.52-1,0,0,.15.37,0,0Z"/>
    <path class="cls-23" d="m168.21,325.69c.39.05.73.14,1.08.24l.76.64,1.51,1.27,1.5,1.3.74.67c.13.34.32.68.32,1.09-.33-.16-.67-.24-1.01-.36-.45-.42-1.72-1.52-2.2-1.93,0,0-1.5-1.27-1.5-1.27l-.76-.63c-.16-.32-.32-.65-.44-1.02h0Z"/>
  </g>
  <g id="Hair">
    <line class="cls-21" x1="141.18" y1="175.74" x2="140.02" y2="176.19"/>
    <path class="cls-21" d="m143.76,145.93c-1.13,6.07,16.12,23.84,16.12,23.84l6.15,39.37c-6.77,14.92-3.38,17.84-3.38,17.84,0,0-4.15,11.38-7.23,11.84s.15,16.92.15,16.92c0,0,.46,4.92,2.31,18,1.85,13.07-13.19,36.16-13.19,36.16,1.32,15.66,4.97,26.81,4.97,26.81-2.79.87-4.99-15.7-4.99-15.7-1.83,1.05-.5,9.93-.5,9.93,3.48,7,1.97,9.29,1.97,9.29,1.1-.73-3.51-7.66-3.51-7.66l-.43,6.36c-3.45.32.43-23.82.43-23.82l-2.37,3.45c-8.73,8.19-3.66,25.76-3.66,25.76-5.61,0-33.09-6.68-33.09-6.68-.54-.54-23.17-6.25-23.17-6.25-1.19-2.16,4.42-19.08,4.42-19.08,6.68-3.66,2.91-9.05,2.91-9.05l7.44-23.71s2.89,2.85,3.55,2.26,1.03,7.8,4.41,5.3c0,0,4.27,1.62,5.3,1.47s3.38-2.43,4.19-6.77.96-9.56.96-9.56c0,0,4.34-3.16,4.34-6.84s-2.06-8.38-2.06-8.38c0,0-2.21-1.99-3.31-1.54s4.41-4.12,5.66-6.91c1.25-2.79,7.35-9.34,7.35-9.34l4.71-7.72s7.5-8.68,7.94-10.37.44-4.71,0-5-1.25-6.84-1.25-6.84c0,0,1.1-6.77-.59-9.86l-1.99.37s5.52-10.22,8.68-13.53l2.06-4.34s1.62-2.65.07-5.15c0,0,.1-.76-2.86-.9m-18.06,8.32l-6.06,12.94s-7.08,10.95-6.88,12.1c.2,1.16,2.06.5,2.06.5l.92-1.91s5.86-10.25,8.07-11.65,4.67-4.57,4.67-4.57c0,0,2.74-4.62,6.03-8.39,3.28-3.75,6.47-6.41,6.27-6.57m46.44-123.14c7.75-7,31.24,19.69,31.24,19.69,0,0,11.91,28.94,15.13,31.21s2.46,27.42,3.4,32.72-6.24,22.13-6.24,22.13l-4.54,15.13c-12.29,9.65-18.53,60.9-18.53,60.9-6.43,10.97-17.59,53.71-17.59,53.71-2.08-.57.57,59.01.57,59.01l4.5.52c-3.26-1.63,1.89-23.58,1.89-23.58-1.82,3.13,1.04,21.63,1.04,21.63-1.43-1.17,5.6-43,7.17-41.95,1.56,1.04-3,40.78-3,40.78l6.12-11.34,5.21-37.52-.87,30.01c2.17-1.48,12.15-23.86,15.53-26.38,3.38-2.52,8.84-15.76,13.29-25.23s8.42-6.74,8.42-6.74c25.58,6.86,39.84-1.91,39.84-1.91-6.04,2.73-7.59,18.97-7.59,18.97,1.23,19.48,13.35,24.54,13.35,24.54-2.61.31-8.9-10.43-8.9-10.43l7.21,5.98c-11.2-8.59-5.06-19.48-5.06-19.48-1.38-8.13,13.5-20.86,13.5-20.86,3.99,1.23,17.26-14,17.26-14,2.04,18.64-20.78,33.85-20.78,33.85,9.94-3.7,22.31-23.33,22.31-23.33l.09,18.85c1.71-.14,1.14,26.39,1.14,26.39,1.57,1,2.71-11.41,4.42-14.55s-3.85-13.26-5.28-20.25c-1.43-6.99,1.14-11.55,1.14-11.55,0,0,1.71-12.12,2.57-5.28.86,6.85,12.69,15.55,12.69,15.55.71-1.14-8.7-23.25-10.41-23.11s-10.6-32.78-9.75-38.87c.85-6.09-8.43-28.56-8.43-28.56-2.48-12.76-21.07-25.65-21.07-25.65-2.85-18.34-15.61-22.92-15.61-22.92,2.11-14.99-11.15-25.4-11.15-25.4,10.28,1.86,22.43,31.23,22.43,31.23.12-15.49-23.05-36.18-23.05-36.18.37-3.59,13.51,11.15,13.51,11.15.62-6.44-15.49-15.37-15.49-15.37,0,0-7.19-5.08-9.29-21.44-2.11-16.36-10.9-17.1-12.76-18.22s-5.2-11.03-5.2-11.03c-6.57-11.28-31.11-13.19-31.11-13.19-9.12-3.51-12.43,2.86-12.43,2.86-2.34-8.79-14.61-2.69-24.29,1.87s-25.95,23.57-25.95,23.57c-1.94,2.13.37-1.72-8.36,13.28-8.73,15-10.45,22.75-10.45,22.75,0,0,2.09,1.11-11.31,8.73-13.41,7.63-19.92,21.65-22.38,24.84-2.46,3.2-1.6,26.69-1.6,26.69,0,0,4.8-13.65,4.18-22.51-.61-8.86,18.57-24.23,19.8-23.98s-5.04,13.77-5.04,13.77c-9.72,9.1-14.14,26.44-14.14,26.44,0,0-5.17,12.05-7.5,12.05s-3.59,10.65-3.59,10.65l-2.35,5.03s-5.03,8.5-5.95,12.09-3.01,7.19-5.1,8.89c-2.09,1.7-1.31,4.38-1.31,4.38-.39-.92,5.88-7.71,5.88-7.71.52,2.42-10.79,13.47-10.79,13.47-3.79,3.6-16.93,15.69-16.93,15.69-1.2-1.04-6.28,5.69-6.28,5.69-1.88.35-.92,4.31-.92,4.31.92-4.31,7.26-8.43,7.26-8.43,1.37.26,14.38-12.22,14.38-12.22l-.07,1.37c1.37,0-7.98,18.96-7.98,18.96-.72,6.73-11.64,19.81-11.64,19.81,3.07,1.63,7.45-5.43,7.45-5.43-.78,5.03,1.88,10.66,1.88,10.66-3.79,2.15-3.41,20.35-3.41,20.35-2.15.51,9.98,23.04,9.98,23.04l6.27-13.18c-.61-2,.22-4.09.22-4.09,0,0,.88-2.57,2.74-2.47s6.19-20.88,6.19-20.88c-2.46.93-9.9-3.71-9.9-3.71-1.53.89-4.79-2.52-4.79-2.52-2.24.29-2.87-2.75-2.87-2.75-.35-2.94-1.57-5.88-1.57-5.88-2.4-3.96,3.39-10.25,3.39-10.25.42-2.78,5.97-.17,5.97-.17,1.19-1.8,4.13-3.21,5.43-3.86s4.4-2.75,4.4-2.75c1.42-2.18,6.5.05,6.5.05l.3-1.08c-.52-.07,3.18-18.1,4.73-21.12,2.57-5.01,6.57-10.78,6.57-10.78,0,0,9.09-17.87,14.7-24.37,5.61-6.5,6.65.66,6.65.66l.74-1.77c.96-2.51,7.39-10.27,7.39-10.27,6.72-1.85,6.28,4.58,6.28,4.58l-.96,2.81c-7.24,18.69-33.39,34.27-33.39,34.27,1.26.44,12.78-7.39,12.78-7.39l-19.5,14.4c1.03,1.4,29.4-19.72,29.4-19.72l-5.54,4.58s-16.32,14.4-15.44,16.77-18.02,25.85-18.02,25.85c1.85.07,18.39-24.15,18.39-24.15,4.8-11.45,35.8-30.16,35.8-30.16,3.22-.97,15.3-5.8,19.45-9.81.56-.54-1.57-.27-1.23-.8,4.31-6.83-1.09-13.7-1.09-13.7-1.77,29.7-.08,29.74-.08,29.74-1.22-.5-.61-7.93.11-13.97.5-4.23,1.05-7.78,1.05-7.78-.38,11.22,1.59,14.91,1.59,14.91-1.35-1.14-.27-12.09.88-19.88.56-3.81,1.47-7.69,1.47-7.69-3.42-3.5,1.06-20.34,1.06-20.34,6.92-23.79,2.49-28.53,4.9-30.32s1.4-22.23,1.32-29.23c-.08-7,2.57-7.93,2.57-7.93,16.4-21.77,25.57-9.87,25.57-9.87l5.28-4.55Zm64.68,209.86s52.39-21.6,48.11-43.62c0,0,4.28-1.5,2.99,5.56l3.28-7.1s9.13,35.86-22.56,43.51c0,0-22.96,4.09-31.83,1.64Zm35.05-45.69c2.42,10.88-26.46,24.98-26.46,24.98-.81-3.89,6.58-13.83,6.58-13.83.54-12.76,13.97-23.64,13.97-23.64,3.86-3.67,5.91,12.49,5.91,12.49Zm-155.69-52.06c-6.1,14.16-15.58,18.19-15.58,18.19,3.99.43,11.33-21.37,11.33-21.37,0,0,.22-.3,1.99-.92,1.13-.39,4.92-2.1,2.25,4.09Z"/>
    <path class="cls-37" d="m170.06,47.42c-3.47-1.7-9.91-4.94-13.37-2.08,3.43-2.93,9.96.2,13.49,1.86,0,0-.12.22-.12.22h0Z"/>
    <path class="cls-3" d="m250.38,241.19s-14.25,20.14-17.26,19.14l-11.37,47.32s20.65-58.58,28.62-66.46Z"/>
    <path class="cls-22" d="m180.43,58.07c-12.19-15.65-27.88,11.91-27.88,11.91-1.72,1.63-3.81,32.42-3.81,32.42-.69-15.19.96-25.93,3.13-33.3,3.05-10.39,7.13-14.06,7.13-14.06,0,0-8.93,4.87-11.36,28.94,0,0,2.23-25.2,9.57-30.95,0,0-8.78,6.68-10.56,22.78,0,0,.37,7.85-1.47,7.85,0,0-6.42,17.53-10.39,16.61,0,0-.91,7.76-15.74,10.4,0,0,14.16-12.57,14.12-21.75,0,0,5.3-3.04,10.49-14.22l3.95-9.14s-12.19,23.99-22.7,24.68c0,0-.12,3.32-4.76,6.64,0,0-1.84,2.28-2.85,1.58,0,0,.55-.82.2-.99s8.67-24.5,17.86-35.11c0,0,19.22-21.35,22.22-21.6,0,0,26.14-17.12,28.98-4.76l-2.38,2.9c-2.59,4.13-3.73,19.18-3.73,19.18,0,0,3.35-19.35,6.12-22.08,2.77-2.73,0,0,0,0,0,0,3.27-6.41,12.43-2.86,0,0,25.91,2.16,31.11,13.19,0,0,4.16,11.54,5.2,11.03s11.97,4.2,12.76,18.22c.8,14.01,9.29,21.44,9.29,21.44,0,0,16.29,8.91,15.49,15.37,0,0-13.15-14.73-13.51-11.15,0,0,23.3,20.69,23.05,36.18,0,0-12.69-30.77-22.43-31.23,0,0-32.24-23.48-31.47-28.86,0,0-.96,2.69,4.89,8.92,5.85,6.24,27.35,19.67,26.58,23.03,0,0,8.92,5.37,7,11.51,0,0-5.85-10.53-8.2-8.73,0,0,11.47,13.96,8.85,16.45,0,0-3.46-8.57-8.16-9.68,0,0,13,18.39,10.65,19.22,0,0-19.77-25.3-23.78-20.88,0,0,20.74,14.52,18.8,19.49,0,0-6.64-7.19-7.88-6.77,0,0,12.03,13.69,12.3,14.93,0,0-10.51-10.09-11.34-9.95,0,0,15.76,17.56,14.93,18.66,0,0-18.25-19.44-20.61-17.6,0,0,28.32,50.98,23.37,55,0,0-10.45-10.32-10.99-15.27,0,0-9.51-37.51-13.26-36.84,0,0,8.17,21.97,4.15,23.58,0,0-2.28,18.91-6.03,19.24,0,0-4.15-13.07-1.34-15.89,0,0,9.11-16.35,2.81-22.78,0,0,2.1,10.65-5.66,25.39,0,0,14.72,62.84,4.8,66.33,0,0-8.17,18.78-14.43,18.2,0,0,12.52-28.54,9.61-33.93,0,0-5.82-1.02-10.19,6.7,0,0-6.12,15.25-3.49,17.02,0,0,4.37,12.11-11.65,16.33,0,0-3.2-9.76,8.3-20.68,0,0,10.05-37.42,7.28-39.75,0,0-2.04-17.62,2.48-18.49,0,0,2.02-9.82,4.66-10.78,0,0-9.17,6.41-9.03,12.96,0,0-12.81,30.97-13.54,41.4,0,0-2.77,12.18-3.79,12.18s2.77-15.87,2.77-15.87c0,0,11.21-42.23,10.48-42.66s-6.84,27.18-7.86,27.35,1.89-19.92,1.89-19.92c0,0-8.15,18.49-7.57,20.68.58,2.18-3.09-13.54,1.22-19.73,0,0,5.38-11.33,7.18-11.3,0,0,7.3-4.97,7.5-7.44.21-2.47,6.58-15.64,5.97-24.28-.62-8.64-3.13-38.66-6.09-38.26s-4.4-28.81-12.22-31.48c0,0-17.35-27.54-28.39-21.2,0,0-4.25-.18-5.11,1.3,0,0-3.06,1.98-5.2,3.83s-.73,1.21-.73,1.21Zm76.54,94.52s3.05,11.38,0,11.24c0,0-3.54,22.12-5.91,20.64,0,0,13.18,11.74,11.48,24.79,0,0-3.91,31.58-9.4,37.84,0,0-15.11,24.91-14.56,27.32,0,0-10.29,21.01-11.56,20.37l-4.12,10.36s2.68-5.22,3.65-5.69,5.89-9.12,5.89-9.12l5.61-12.1,3.45-8.02s1.75-3.37,5.97-4.14c0,0,1.2-.06,2.89-3.98,0,0,25.82-12.84,26.48-15.7,0,0,21.68-13.23,19.47-27.08,0,0-11.96-47.21-19.04-43.91l-5.04-4.72s9.91,21.41,7.06,22.63l-.87,1.9s-19.3-16.97-16.22-18.85c0,0-1.45-17.88-5.24-23.78Zm8.24,75.98s.6-14.63,15.07-24.3c0,0,4.74-.27,5.83,13.95,0,0-.12,7.54-7.11,11.86,0,0-12.48,10.75-20.09,13.3,0,0-1.08-1.12-.38-2.19,0,0,2.09-8.1,6.67-12.62Zm-11.68-92s17.75,31.3,17.37,32.35l6.36,5.24s5.22-1.63,8.84,10.55c0,0,12.92,32.4,11.57,33.51,0,0,4.13-1.23,4.58,1.61,0,0,.06,2.98-.11,2.98s2.54-5.58,2.54-5.58c0,0,3.63,7.21,1.99,19.94,0,0-3.66,18.8-13.69,20.67,0,0-7.01,8.54-38.94,6.87,0,0-4.76,3.21-6.29,2.1,0,0,25.31,5.98,38.32-1.2,0,0,14.5-5.74,19.28-12.87,0,0,10.77-11.98,8.12-27.05,0,0,5.41,25.31-10.93,36.24,0,0,21.4-7.23,15.42-33.06-5.98-25.84-3.42-21.77-3.42-21.77,0,0-7.46-45.15-28.44-49.6,0,0-1.44-20.65-14.38-24.39l-3.94-3.68s5.39,9.85,3.28,9.72c0,0-5.2-2.95-5.58-5.06,0,0,1.07,3.77.32,3.64,0,0,5.68,8.13,4.66,8.13,0,0-4.42-2.48-4.66-3.3,0,0,10.04,10.72,8.44,11.97,0,0-2.25-.37-2.5-1.34,0,0-17.47-17.59-18.22-16.62Zm-121.67-48.49s-3.41,2.71-5.91,2.71c0,0-4.08,9.22-8.67,8.68l-9.83,12.02s-4.52,14.69-5.42,14.1-13.11,17.27-13.38,24.77c0,0-5.42,14.37-7.86,13.65s-3.16,5.24-3.16,5.24c0,0-2.89,12.84-4.61,14.1,0,0-4.34,4.37-4.07,6.66l14.37-17.96-8.05,17.36s10.85-12.2,11.93-17.45l2.98-3.53s-13.38,32.18-17.63,30.28l-13.65,33.45-.72,2.35,7.3-2.93s-.53-1.47,4.02-1.82l1.8.14,4.79-20.75s8.24-12.36,8.16-13.93l13.86-22.62s7.19-5.69,6.89.3l7.64-10.78s9.19-2.51,7.69,5.58c0,0-8.01,20.58-21.21,27.34l8.77-4.26s5.07-3.6,5.18-6.6l.48-1.13s1.64.43,1.96-.84,6.69-10.14,9.05-17.32c2.36-7.18,6.63-16.47,6.63-16.47l.9-.81s6.4,4.47-3.24,21.92c0,0-7.63,14.04-13.56,15.02l-7.88,9.1,15.2-9.85s9.61-3.58,16.62-23.61l.76-1.77.58-.37-.31,10.32,1.22-.79v5.8l2.63-18.13s-3.11-5.43-.98-11.97,8.37-34.95,6.12-36.76-1.35-21.55-1.35-21.55l-1.2-1.58s-7.96,19.45-11.04,17.8c0,0-4.29,10.19-17.2,10.21l-1.2-.3s19.09-18.91,14.58-23.05Zm12.53,79.05s2.84,18.71,17.23,27.46m-18.93-6.7l-.61.3c-.61.3-5.46,8.69-5.46,8.69l2.64,4.95c.37,9.9,20.8,14.85,20.8,14.85-22.43-10.41-17.68-24.14-17.68-24.14-1.21,4.35,5.15,4.34,5.15,4.34-3.23.3-3.94-8.69-3.94-8.69l-.91-.3Zm-5.31,21.7l.95,5.84c.84.21.58,3.89.53,5.79-.05,1.89-8.42,10.78-8.42,10.78l-4.21,7.36c-5.21,3.63-8.47,11.05-8.47,11.05l-4.58,4.58c.71-.5,3.42,1.79,3.42,1.79,5.42,12.57-2.58,15.78-2.58,15.78.89,14.47-5.94,16.74-5.94,16.74l-5.07-1.67c-2.71,3.2-4.77-4.95-4.77-4.95-.4.86-2.87-1.85-2.87-1.85l-6.88,22.17c2.77,7.39-3.75,9.33-3.75,9.33l-3.95,18.68,26.77,6.51,6.51,1.76,5.7.68,3.32-9.5c-6.04,12.34,11.19,10.85,11.19,10.85-3.93,2.98-6.78-12.07-6.78-12.07,7.33.41,14.46-52.55,14.46-52.55,2.74-1.86.98,29.8.98,29.8l3.13-6.55c5.08-14.85,5.08-25.5,5.08-25.5,0,0-3.71-22.77-1.39-22.57s2.27-11.24,2.27-11.24c0,0,10.61-13.65,9.19-13.68s-1.15-1.37-1.15-1.37l-5.88,6.55v-15.45l-2.35-.48c1.66,1.27-.88,15.34-.88,15.34l-7.91-10.46-1.07-7.72-3.62-2.93-.98-.85Zm75.27,112.93l8.54-15.64,10.96-47,3.94-9.71s11.49-29.51,9.28-30.29-6.56,2.16-6.56,2.16c0,0-6.65,9.26-6.74,19.14,0,0,4.04,9.7-3.77,14.83,0,0-6.47,4.85-7.91,4.13,0,0-3.33-3.24-.18-11.41,0,0,4.94-10.87,7.28-10.69,0,0,10.16-37.34,7.91-38.76,0,0-2.25-13.19-.63-16.24,0,0-11.26,25.61-11.83,32.44,0,0-4.17,21.93-6.05,21.57,0,0-2.32,2.44-1.89-.61s4.96-22.27,4.96-22.27l1.84-21.48s-5.94,12.86-4.85,14.36c0,0-3.5-2.15-2.87-7.77,0,0-7.25,28.97-6.7,36.49,0,0-6.98,11.83-18.33,54.71,0,0-1.19,34.47,1.07,56.63l2.03.54s-.76-17.42,2.94-24.39l1.09-.98s-1.26,12.6.19,19.04c0,0,4.61-37.7,6.83-37.49l1.1.34s.45,12.53-2.36,36.29l-.63,3.3,5.16-9.7,5.42-38.44.54.64-.46,28.32"/>
    <path class="cls-10" d="m145.49,133.15c-5.7,15.79-1.42,21.97-1.42,21.97l-2.21,16.7-.52-4.61-1.17,2.21v-11.04l-.91,1.01c-10.38,28.17-23.3,24.44-23.3,24.44,6.34-.28,14.24-17.54,14.24-17.54,7.35-15.6,1.53-18.84,1.53-18.84l-4.26,12.23c-13.75,30.14-22.84,30.35-22.84,30.35,6.28-1.97,15-18.24,15.46-23.74.46-5.5-6.89-4.61-6.89-4.61l-8.11,10.72c-.92-4.29-6.28-.15-7.04-.31s-19.42,34.41-21.74,36.13c-2.31,1.71-5.2,22.2-5.2,22.2,0,0-1.68-.77-3.52-.92s-12.4,7.04-12.4,7.04c-2.6-3.52-9.19,3.06-9.19,3.06,7.61-10.33,8.73-25.26,8.73-25.26l8.94-9.89c5.72-6.86,3.52-8.33,3.52-8.33l-1.69,1.5,1.5-4.41c0-1.8,9.19-19.17,9.19-19.17.91-11.16,4.11-10.9,4.11-10.9l11.74-17.17c-6.44,12.09-6.44,23.4-6.44,23.4-1.58-9.33,33.65-48.64,33.65-48.64,21.3-7.62,14.46-17.48,14.46-17.48,10.25-7.49,13.93-29.31,13.93-29.31,1.92-.33,3.55,43.43-2.15,59.22Zm-100.11,108.52s-7.63,11.59-8.75,11.84c0,0-1.18,1.4-1.43,1.36s.25.04.25.04c0,0,2.76-.14,7.12-6.94,0,0-2.66,1.93,1.7,12.78,0,0-3.79.38-3.57,20.38,0,0-1.43-.49,1.23,3.93l7.79,17.17,6.02-11.33s-1.5-5.93,3.45-7.35c0,0,3.81-9.47,5.49-19.12,0,0-8.85-2.39-9.2-3.98,0,0-4.72-.35-4.44-2.92,0,0-3.5,2.55-4.32-4.96,0,0-2.83-7.35-1.95-8.14l.63-2.77ZM218.03,57.63s24.63,48.97,37.45,43.7c0,0-19.85-16.08-16.84-23.62,0,0,7.18,7,9.06,4.07s1.33-.72,1.33-.72c0,0-1.43-20.41-13.75-23.42,0,0-20.47-14.29-19.53-16.38l17.02,17.34,6.27,10.86-4.6-4.8,2.92,8.56s-21.96-9.65-19.33-15.58Zm34.83,47.35l9.53,23.32s-16.43-7.02-15.3-12.16c0,0,8.28,44.26-8.4,33.48,0,0-19.19,46.77-17.18,51.54l-13.42,25.58-1.38,9.53s-12.16,26.83-17.81,53.54c0,0-1.25,52.16.88,56.8l2.38,1.13s-.59-21.56,3.13-22.29l.75-2.04s-1.51,13.1.56,18.21c0,0,3.2-37.4,6.09-37.77l2.01.13s-1.46,36.04-3.61,38.21l5.77-8.14,4.87-39.1.25,28.72,9.78-16.02,9.79-47.55s3.56,1.06,18.84-18.91c0,0-25.35,50.13-24.91,58.66l-1.05,3.26,4.65-5.75,13.64-28.73,20.92-39.8s11.74-27.63-1.02-50.83l-14.3-9.93,7.17-19.33s32.58,32.66,28.31,44.56c0,0,13.05,23.03,3.32,30.36,0,0-20.42,23.74-26.55,21.47,0,0,27.57,5.39,35.74-22.69,0,0,3.83-20.17,0-22.72l14.55,23.93s3.38,28.52-22.56,42.63c0,0-11.54,13.85-4.57,31.97,0,0-2.48-19.19,15.65-34.1,0,0,21.44-12.36,17.1-33.8l2.55,19.15v10.47l3.06-8.68,10.72,14.3s-4.12-17.76-6.02-17.3-10.83-21.5-11.85-38.86c0,0-4.62-38.91-28.22-54.94,0,0-6.24-20.88-15.94-21.39,0,0,.94-23.81-17.91-28.12Zm-113.6,116.88l-24.23,32.86c10.58,12.25-.56,17.22-.56,17.22,0,0-.19,6.92-.93,16.57-.74,9.65-11.14,1.86-11.14,1.86-4.46.56-6.5-7.43-6.5-7.43l-7.94,19.28c5.24,5.17-2.46,10.98-2.46,10.98-5.01,13.74-3.25,17.27-3.25,17.27,34.44,12.62,51.98,11.05,51.98,11.05-8.91-8.26,10.03-33.87,10.03-33.87,15.97-20.88,11.51-39.65,11.51-39.65-5.01-30.08-1.3-30.28-1.3-30.28,4.83-.95,3.71-7.96,3.71-7.96-9.1,12.81-10.77,6.31-10.77,6.31,2.23-5.94-8.17-26.14-8.17-26.14v11.93Z"/>
    <path class="cls-24" d="m91.82,145.93l-7.56,21.3s10.31-9.28,11.34-14.43c1.03-5.15,22.67-29.89,22.67-29.89,0,0,24.94-27.75,27.66-39.03,2.71-11.28,3.08,26.4,3.08,26.4,0,0,.28,15.48-7.83,38.45l-1.92,7.19s-7.87-18.48,1.92-34.65v-4.18s-8.57,11.6-10.12,18.87c-1.55,7.27-5.72,6.34-4.49,18.1,0,0-1.55,10.67-5.57,10.67,0,0-3.75-5.11-9.76-1.86l-6.33,9.28s-3.95-5.45-8.82,3.57-16.4,28.77-18.87,30.32c0,0-6.81,19.8-5.88,23.05,0,0-6.42.14-6.96,1.86,0,0-9.54,4.21-9.13,5.72,0,0-6.19-1.69-5.88,0,0,0-4.95,7.43-4.33,10.21,0,0,2.32,5.88,2.48,9.59,0,0,1.98,2.17,3.54,1.08,0,0,2.37,5.22,3.42,3.71,0,0,8.54,4.92,9.75,3.56,0,0-2.63,15.78-4.95,16.4l-.46,2.01s-4.49,1.55-3.4,7.43l-4.64,11.86-10.93-20.46s1.18-23.89,4.9-20.8c0,0-3.71-8.2-2.32-12.53,0,0-6.17,7.71-7.44,6.32,0,0,12.17-14.71,11.31-19.32,0,0,8.54-16.73,8.13-19.44l-.4-1.79s-12.38,12.4-14.02,12c0,0-7.69,5.99-7.73,7.61,0,0,4.33-7.63,6.4-7.73l.68-.11,13.42-12.21,9.54-9.31s5.6-6.47,5.52-7.96c-.08-1.5-1.69.51-1.69.51l-4.76,5.93s.03-1.82,1.27-2.78,3.95-4.82,3.95-4.82l2.1-6.45,6.76-12.84.82-1.78s1.64-11.54,2.87-10.38c0,0,2.32-.48,3.41-2.39s8.54-15.9,8.54-15.9h.73Zm135.65-67.57s27.42,27.01,29.75,26.74,7.27,2.56,7.27,2.56c0,0,7.22,4.84,17.28,27.18,0,0-5.72-19.87-19.87-30.08l-3.63-4.18s2.2-1.56,2.47-.54c.27,1.02,10.67,7.89,10.9,10.28,0,0,.85-4.1-13.76-12.37,0,0-22.04-12.91-20.88-18.09,0,0-11.81-.69-11.08-5.61,0,0-.76,4,1.55,4.1Zm-14.63-37.43s20.23,17.83,20.23,18.35,8.4,2.23,10.2,7.46l1.8,3.17v-3.6s-1.11-5.66-10.8-9c0,0-23.06-15.26-21.44-16.38Zm28.29,130.54c-1.37,6.33-16.61,50.5-16.61,50.5l8.9-40.34-10.96,29.56,4.28-29.56s-4.11,30.41-12.15,37.78c-8.05,7.36-5.92,17.4-8.07,17.14s-12.12,40.01-15.51,46.32.36,42.15.36,42.15c-1.89-2.52,4.29-15.52,4.29-15.52l1.71,20.95,1.32-11.23c-4.13-6.15,2.79-47.71,2.79-47.71,0,0,4.16-2.78,1.13.63s1.01,24.99,1.01,24.99c-2.82-4.19,6.06-29.78,6.06-29.78-2.02.25-3.03,31.8-3.03,31.8l-4.04,42.79,3.28-8.46,5.17-38.24c-1.64-5.68,5.55-17.29,5.55-17.29-5.55,6.82-2.27,40.89-2.27,40.89l1.89-8.08c-.88-5.65,6.94-34.83,6.94-34.83l-1.42,27.51,10.38-45.06h1.89c11.11-5.43,13.13-18.43,13.13-18.43-.13,4.16-11.09,12.75-11.09,12.75,0,0-.96-2.55,2.31-3.2s6.81-33.68,6.81-33.68c0,0-16.38,14.55-14.52,14.02s2.34-13.89,2.86-14.42,5.77-35.78,5.77-35.78l5.5-4.72,4.59,12.19s2.45,29.65,4.85,32.94c2.4,3.29-2.67,19.12-3.86,21.13-1.19,2.01-10.64,22.27-10.64,22.27-1.78.44-9.07,27.57-9.07,27.57l7.61-15.15,19.03-33.21c-1.68-1.78,7.29-14.34,7.29-14.34-1.02-3.06,4.81-14.09,4.81-14.09,2.37-1.93,2.02-19.4,2.02-19.4l-1.23-9.74c-5.09-.44-5.79-17.82-5.79-17.82l5.18,9.39,11.32,26.07c5.53,6.14,8.6,18.7,8.6,18.7-1.4,10.8-30.61,35.02-30.61,35.02,19.77-6.12,30.61-26.24,30.61-26.24,2.63-3.86,2.69-11.63,2.69-11.63l-2.63-6.14-8.98-12.56c-2.99-2.63-4.38-20.12-4.38-20.12,4.6,15.23,12.34,19.37,12.34,19.37l-4.14-4.47c-2.32-1.99-6.23-16.66-6.23-16.66,5.85-2.09,10.54,17.32,10.54,17.32,0,0,3.41,16.95,5.71,18.39s.43,14.99.43,14.99c1.45-.17,3.07-11.33,3.07-11.33,2.47-2.55-3.75-21.29-3.75-21.29,0,0,7.6,11.18,9.46,16.36s4.46,10.05,4.46,10.05c-.57-1.05-.81-6.24-.81-6.24,5.02,6.56,3.32,10.94,3.32,10.94,2.84,5.75.16,17.09.16,17.09-.08,2.19-12.5,16.69-13.86,16.69s-5.25,5.57-5.25,5.57c-6.01,2.06-9.36,22.83-9.36,22.83.05,7.57,4.87,10.87,4.87,10.87-3.79-1.51-.65-15.09-.65-15.09-1.89-3.46,8.01-14.93,8.01-14.93l5.57-8.28c1.57,1.14,8.06-7.14,8.06-7.14-.11-3.03,6.55-8.66,6.55-8.66,4.44,1.57.81-16.01.81-16.01l3.14,8.39c1.89,3.08-1.3,8.98-1.3,8.98.32,3.73-16.26,16.91-16.26,16.91,1.92,1.87,17.27-13.91,17.27-13.91l.16.59c2.83,9.54-8.85,23.08-8.85,23.08,1.01.37,9.86-13.43,9.86-13.43l.59.8,1.52-7.41,1.74-2.09.7,1.86c-.81,5.45,10.91,14.62,10.91,14.62,0,0-7.43-20.31-10.1-20.07s-9.51-34.23-9.51-41.42-8.59-26.57-8.59-26.57c.46-.7-1.23-6.24-1.23-6.24-5.85-9.72-19.67-19.13-19.67-19.13v-.91c-1.11-15.74-13.82-21.29-13.82-21.29l-8.78-5.55c5.45,10.39.81,15.54.81,15.54l6.46,7.98c-10.76-1.76-22.84-28.98-22.84-28.98,3.01,2.61-5.24,43.27-6.61,49.61Zm-10.99,79.35c-.89,6.74-10.65,6.74-10.65,6.74-2.48-14.02,11.71-22.71,11.71-22.71l-1.06,15.97Z"/>
    <path class="cls-37" d="m148.29,71.47c-2.14,8.62-6.75,28.39-13.92,33.41,2.56-1.72,4-4.61,5.35-7.3,1.31-2.76,2.38-5.63,3.34-8.52,1.92-5.8,3.46-11.73,4.73-17.69l.49.1h0Z"/>
    <path class="cls-37" d="m146.89,84.32c.3,10.29.68,20.76-1.52,30.88-.33,1.25-.71,2.5-1.36,3.64-.6.96-1.38,2.37-1.8,3.4-2.75,7.23-3.6,15.05-4.26,22.72.72-8.28,1.37-16.91,4.9-24.55,1-1.59,1.89-3.43,2.27-5.27,2.11-10.09,1.65-20.55,1.27-30.79,0,0,.5-.03.5-.03h0Z"/>
    <path class="cls-37" d="m116.27,125.7c-5.31,5.7-10.5,11.54-15.22,17.74-2.19,3.11-4.88,6.23-5.74,10,.03.97-.3,1.98-.64,2.87-4.31,9.84-10.5,18.75-16.58,27.56-4.04,5.46-7.96,11.21-13.19,15.61-.75.51-1.69,1.31-2.64.91.94.4,1.89-.41,2.63-.92,5.21-4.42,9.09-10.19,13.1-15.67,5.55-8,10.92-16.19,15.24-24.92.77-1.76,1.76-3.52,1.77-5.48.14-1.01.54-1.92.97-2.8,1.32-2.63,3.05-5.02,4.79-7.38,4.71-6.24,9.86-12.12,15.16-17.86l.36.34h0Z"/>
    <path class="cls-37" d="m135.52,107.71c-3.26,6.73-6.64,13.41-10.19,19.99-3.48,6.03-6.49,12.58-11.36,17.63-.36.29-.76.59-1.24.6.48-.02.88-.32,1.23-.61,4.8-5.1,7.74-11.68,11.15-17.74,3.48-6.62,6.78-13.33,9.96-20.08l.45.21h0Z"/>
    <path class="cls-37" d="m143.46,112.36c-3.2,3.9-6.29,7.9-9.2,12.02-2.64,4.09-6.21,8.37-6.99,13.28.7-4.93,4.2-9.28,6.78-13.42,2.85-4.18,5.87-8.23,9.02-12.2l.39.32h0Z"/>
    <path class="cls-37" d="m106.56,152.62s-7.95,13.75-7.97,13.79c-3.12,1.78-6.02,3.98-8.65,6.44-2.6,2.46-4.93,5.26-6.65,8.41-3.36,6.38-8.17,11.96-13.77,16.48,5.55-4.56,10.31-10.16,13.61-16.56,1.7-3.19,4.02-6.02,6.62-8.53,2.5-2.38,5.83-4.99,8.55-6.47,0,0,7.83-13.81,7.83-13.81l.43.25h0Z"/>
    <path class="cls-37" d="m83.29,194.08c-2.03,2.08-4.22,3.99-6.62,5.63-2.36,1.56-5.1,3.13-8.02,2.88,2.92.16,5.57-1.47,7.88-3.09,2.33-1.69,4.46-3.65,6.39-5.76l.37.34h0Z"/>
    <path class="cls-37" d="m78.06,202.06c-1.75,5.25-6.89,22.62-11.81,24.46,1.13-.34,1.86-1.33,2.53-2.24,1.93-2.86,3.22-6.09,4.48-9.28,1.64-4.29,3.05-8.67,4.32-13.08l.48.14h0Z"/>
    <path class="cls-37" d="m74.07,204.06c-1.85,5.41-8.8,27.6-14.5,28.15.69,0,1.29-.39,1.81-.8,3.39-3.31,5.03-7.97,6.9-12.23,2.01-5,3.75-10.11,5.31-15.27l.48.14h0Z"/>
    <path class="cls-37" d="m69.75,205.64c-1.49,4.97-5.74,20.44-11.58,20.88,5.79-.55,9.72-16.02,11.1-21,0,0,.48.12.48.12h0Z"/>
    <path class="cls-37" d="m84.56,195.74c-4.03,3.69-20.14,18.76-24.99,12.39,4.14,5.26,15.49-4.76,19.14-7.7,1.89-1.62,3.73-3.3,5.5-5.05l.35.36h0Z"/>
    <path class="cls-37" d="m124.08,110.31c-4.23,1.41-18.59,5.6-19.45,10.09.76-4.52,15.07-9.05,19.31-10.57,0,0,.15.48.15.48h0Z"/>
    <path class="cls-37" d="m144.38,74.07c-4.64,6.24-9.41,12.41-14.93,17.9-1.88,1.67-3.78,3.83-6.37,4.26,1.31-.14,2.39-.97,3.4-1.74,3.02-2.45,5.56-5.42,8.06-8.37,3.3-3.98,6.43-8.11,9.42-12.33l.41.29h0Z"/>
    <path class="cls-37" d="m145.26,121.58c-1.16,5.1-2.23,10.23-3.17,15.37-.47,2.57-.9,5.16-1.25,7.75-.25,2.57-.81,5.24-.23,7.8-.62-2.55-.1-5.24.11-7.82.31-2.6.7-5.19,1.13-7.78.86-5.17,1.85-10.31,2.93-15.44l.49.11h0Z"/>
    <path class="cls-37" d="m52.27,261.05c-1.88,5.42-4.63,13.97-.74,18.97.62.71,1.42,1.25,2.3,1.59-.89-.33-1.71-.85-2.35-1.55-4.05-4.98-1.46-13.66.32-19.19,0,0,.47.18.47.18h0Z"/>
    <path class="cls-37" d="m56.13,262.81c-.72,3.24-4.55,18.68,1.3,18.16-5.89.65-2.44-14.93-1.78-18.28,0,0,.49.12.49.12h0Z"/>
    <path class="cls-37" d="m60.76,218.12c-.4,2.74-.81,5.77-2.73,7.9-.47.47-1.2.64-1.71.92-1.41.93-2.31,2.5-3.14,3.94-.83,1.5-1.54,3.06-2.16,4.66.58-1.61,1.25-3.2,2.05-4.72.82-1.51,1.67-3.09,3.12-4.1.59-.35,1.18-.46,1.64-.93,1.79-2.1,2.11-5.08,2.43-7.73,0,0,.5.04.5.04h0Z"/>
    <path class="cls-37" d="m119.41,129.72c-8.31,7.1-16.88,14.47-22.61,23.89-.66,1.2-1.24,2.46-1.59,3.78-.35,1.32-.26,2.76-.73,4.07-1.77,5.32-6.11,9.25-10.34,12.68-2.17,1.7-4.45,3.28-6.82,4.69,2.36-1.43,4.62-3.02,6.78-4.73,4.18-3.44,8.49-7.41,10.2-12.69.46-1.32.35-2.72.7-4.07.34-1.35.92-2.62,1.58-3.84,2.73-4.83,6.5-8.96,10.33-12.93,3.87-3.94,7.95-7.68,12.19-11.23l.32.39h0Z"/>
    <path class="cls-37" d="m68.77,193.51c-6.1,3.73-12.08,7.71-17.77,12.05-4.76,3.9-10.22,7.71-12.88,13.42-.27.84-.44,1.76-.17,2.63-.27-.87-.12-1.79.14-2.64.97-2.53,2.84-4.58,4.68-6.52,5.07-5.09,10.88-9.35,16.75-13.46,2.95-2.04,5.94-4.02,8.99-5.92l.26.43h0Z"/>
    <path class="cls-37" d="m74.68,178.99c-4.63,4.52-9.44,8.85-14.51,12.86-4.47,3.31-9.04,7.17-14.62,8.34-.8.08-1.63.05-2.38-.29.75.33,1.58.34,2.37.26,5.55-1.23,10.05-5.14,14.47-8.5,5.01-4.07,9.76-8.46,14.31-13.02l.35.35h0Z"/>
    <path class="cls-37" d="m70.38,190.21c-4.5,3.21-14.61,10.98-20.09,10.02,5.47.84,15.37-7.12,19.78-10.41,0,0,.31.39.31.39h0Z"/>
    <path class="cls-37" d="m123.27,137.18c-4.88,5.32-9.7,10.76-13.87,16.67-1.24,1.99-2.93,4.02-3.06,6.45.08-2.43,1.75-4.5,2.96-6.52,4.08-6,8.8-11.51,13.61-16.94,0,0,.37.34.37.34h0Z"/>
    <path class="cls-37" d="m126.62,145.14c-3.73,3.83-7.63,7.67-10.43,12.26-.15.24-.41.76-.51,1.03-.18.34-.22.73-.3,1.11.07-.38.1-.77.27-1.12,1.03-2.5,2.82-4.61,4.47-6.72,1.95-2.39,4.01-4.68,6.14-6.92l.35.35h0Z"/>
    <path class="cls-37" d="m96.03,175.28c-4.47,5.37-19.54,24.54-25.8,24.96.77.04,1.48-.31,2.15-.63,4.56-2.71,8.07-6.84,11.67-10.67,4.04-4.5,7.88-9.18,11.59-13.96l.39.31h0Z"/>
    <path class="cls-37" d="m224.72,73.77c4.52,5.93,9.25,11.73,14.26,17.25,2.52,2.75,5.11,5.45,7.9,7.92,2.11,1.79,4.3,3.7,6.98,4.55.87.25,1.94.26,2.62-.44-.67.71-1.75.71-2.63.47-2.7-.82-4.91-2.72-7.05-4.48-2.83-2.44-5.45-5.11-8.01-7.84-5.08-5.48-9.87-11.23-14.47-17.12l.4-.3h0Z"/>
    <path class="cls-37" d="m219.59,44.95c5.04,4.87,10.13,9.69,15.42,14.28,2.01,1.65,3.95,3.5,6.25,4.73.81.32,1.6.79,2.14,1.52,2.07,2.86,2.97,6.36,3.8,9.75-.4-1.71-.9-3.39-1.5-5.03-.7-1.82-1.47-3.69-2.83-5.12-.47-.48-1.04-.7-1.66-.97-.81-.36-1.52-.9-2.23-1.41-6.97-5.32-13.31-11.42-19.72-17.38,0,0,.35-.36.35-.36h0Z"/>
    <path class="cls-37" d="m232.23,55.56c5.8,5.72,13.24,3.41,18.5-1.75-3.65,3.7-9.03,6.7-14.3,4.85-1.7-.56-3.26-1.49-4.57-2.76l.37-.34h0Z"/>
    <path class="cls-37" d="m244.73,71.5c8.01,7.32,15.95,14.74,23.31,22.72,1.81,2.02,3.63,4.05,5.13,6.31.48.75.98,1.55,1.09,2.46-.12-.9-.62-1.7-1.11-2.44-3.67-5.15-8.34-9.51-12.82-13.96-5.2-5.03-10.52-9.92-15.93-14.72l.33-.37h0Z"/>
    <path class="cls-37" d="m243.48,152.58c-8.99,25.69-18.54,51.28-25.52,77.61-.41,1.77-.83,3.54-.93,5.36.1-1.82.51-3.6.9-5.37,3-12.36,7.07-24.43,10.98-36.52,4.55-13.8,9.27-27.55,14.1-41.25l.47.17h0Z"/>
    <path class="cls-37" d="m244.8,172.94c6.52,19.07,14.97,53.31-.23,69.73,12.05-13.4,8.52-36,4.93-52.18-1.4-5.88-3.09-11.7-5.16-17.36l.47-.18h0Z"/>
    <path class="cls-37" d="m260.13,152.05c15.17,13.25,29.01,30.63,32.31,50.98.4,2.9.54,5.84.45,8.76.08-2.93-.08-5.86-.51-8.75-2.32-14.54-10.49-27.44-20.04-38.36-3.87-4.37-8.03-8.52-12.52-12.24l.31-.39h0Z"/>
    <path class="cls-37" d="m269.37,154c11.71,13.12,23.25,26.44,33.58,40.69,3.28,4.8,6.95,9.6,8.63,15.24-1.72-5.63-5.42-10.39-8.74-15.16-3.44-4.74-7.08-9.34-10.79-13.88-7.44-9.06-15.16-17.89-23.05-26.55l.37-.34h0Z"/>
    <path class="cls-37" d="m295.3,195.39c8.26,9.17,20.86,24.68,19.63,37.61.8-10.62-6.76-20.98-12.89-29.08-2.24-2.83-4.6-5.58-7.1-8.18l.36-.35h0Z"/>
    <path class="cls-37" d="m232.26,235.76c-14.83,11.79-22.3,31.84-18.66,50.46-2.75-13.96.37-28.89,8.72-40.45,2.74-3.86,5.91-7.42,9.64-10.41l.3.4h0Z"/>
    <path class="cls-37" d="m253.17,179.11c3.05,4.9,4.71,10.47,5.68,16.09,0,0,.55,3.38.55,3.38l.28,3.41c.3,2.6.18,5.93.18,8.55.06,1.11-.59,7.28-.67,8.52,0,0-1.15,6.74-1.15,6.74-.25,1.9-1.09,4.77-1.54,6.65-1.27,5.32-3.27,11.13-5.25,16.24-2.92,7.4-6.41,14.61-10.13,21.63,0,0-6.86,11.81-6.86,11.81l6.81-11.84c3.69-7.04,7.14-14.26,10.02-21.67,1.95-5.11,3.92-10.93,5.16-16.24.45-1.89,1.26-4.74,1.51-6.65,0,0,1.12-6.73,1.12-6.73.18-2.34.76-7.92.63-10.2-.04-1.14.08-3.99-.08-5.1-.09-1.14-.33-3.93-.43-5.09-.18-1.01-.67-4.03-.84-5.03-1.14-4.93-2.65-9.94-5.39-14.19,0,0,.41-.29.41-.29h0Z"/>
    <path class="cls-37" d="m309.71,226.66c7.96,10.43,3.21,23.22-5.55,31.4-2.78,2.71-5.85,5.11-9.04,7.3,3.17-2.22,6.21-4.65,8.96-7.39,8.54-8.15,13.18-20.79,5.26-30.98,0,0,.38-.33.38-.33h0Z"/>
    <path class="cls-37" d="m302.93,254.43c-9.64,7.98-21.11,20.11-20.38,33.5.17,1.93.63,3.83,1.36,5.63-.74-1.79-1.23-3.69-1.42-5.62-.74-9.91,5.39-18.77,11.68-25.86,2.62-2.88,5.42-5.58,8.45-8.04l.31.4h0Z"/>
    <path class="cls-37" d="m269.36,145.22l23.32,24.52c6.03,5.66,13,12.96,13.31,21.72-.37-8.72-7.39-15.96-13.46-21.57,0,0-23.53-24.33-23.53-24.33l.36-.35h0Z"/>
    <path class="cls-37" d="m247.24,128.81c5.43,12.32,10.74,24.71,15.2,37.42,1.34,4.24,3.09,8.53,3.2,13.03-.16-4.49-1.94-8.76-3.32-12.98-1.51-4.23-3.14-8.4-4.84-12.56-3.39-8.31-6.98-16.53-10.7-24.7l.46-.21h0Z"/>
    <path class="cls-21" d="m143.27,173.32l2.68-16.56s-1.99-8.38-2.1-9.04-2.77,26.4-2.77,26.4l2.19-.8Z"/>
    <path class="cls-37" d="m166.82,37.11c-8.76-.41-17.43,3.66-23.18,10.2,4.31-4.97,10.18-8.57,16.65-9.88,2.15-.45,4.34-.69,6.55-.58l-.02.25h0Z"/>
    <path class="cls-37" d="m175.59,45.92c-8.06-4.21-18.28-5.59-26.52-1.15-.54.32-1.88,1.18-2.43,1.51.56-.34,1.88-1.2,2.42-1.54,5.93-3.25,13.07-3.52,19.51-1.77,2.47.66,4.87,1.54,7.15,2.73l-.12.22h0Z"/>
    <path class="cls-37" d="m152.54,48.72c-7.4.05-16.12,1.6-20.61,8.1-.59.93-1.06,1.93-1.42,2.97.35-1.04.81-2.05,1.39-2.98,3.07-4.72,8.73-6.84,14.06-7.77,2.17-.37,4.37-.58,6.59-.56v.25h0Z"/>
    <path class="cls-37" d="m142.21,57.72c-3.37-3.02-8.49-6.89-13.12-4.4-2.18,1.42-4.5,4.51-.03,4.21,2.48-.14,4.91-.72,7.3-1.37-2.39.66-4.81,1.27-7.29,1.43-4.56.33-2.3-2.89-.04-4.38,2.18-1.39,4.98-.89,7.21.12,2.28,1.03,4.32,2.51,6.15,4.21l-.18.18h0Z"/>
    <path class="cls-37" d="m150.15,50.58c-5.48,1.1-11.43,2.35-15.76,6.11-1.41,1.28-2.17,3.3-1.45,5.14.8-.13,1.89-.34,2.73-.74.87-.38,1.68-.93,2.33-1.63-1.3,1.42-3.19,2.19-5.08,2.4-2.02-6,7.29-8.88,11.61-10.23,1.84-.52,3.69-.96,5.58-1.3l.04.25h0Z"/>
    <path class="cls-37" d="m129.86,74.66c1.08-7.5.7-15.91-3.91-22.23,3.56,4.67,4.61,10.72,4.59,16.48-.02,1.94-.14,3.87-.43,5.8l-.25-.04h0Z"/>
    <path class="cls-24" d="m114.9,105.44c-11.47,5.36-26.78,14.43-29.96,27.55,0-.09-1.94,22.27-1.95,22.26,0,0,1.61-22.31,1.61-22.31,2.41-10.63,11.84-17.77,20.56-23.37,3.02-1.86,6.11-3.56,9.35-5.05l.4.92h0Z"/>
    <path class="cls-24" d="m126.13,243.63l-3.82,3.45s26.84,48.68,13.96,70.15c0,0,20.18-25.57-10.13-73.6Z"/>
    <path class="cls-24" d="m155.88,237.42l-3.69,5.72-1.08,8.43s-5.25,1.49.15,32.34c0,0-5.66,21.48-8.41,21.48,0,0,9.96-4.18,11.97-19.9,2.01-15.72,1.06-48.08,1.06-48.08Z"/>
    <path class="cls-24" d="m109.14,290.94s-7.26,39.14-4.46,44.53c0,0,4.88-40.87,6.97-43.28,2.09-2.42-2.51-1.24-2.51-1.24Z"/>
    <path class="cls-24" d="m122.31,278.68l-8.89,56.78s13.08-54.59,11.58-56.78c-1.5-2.19-2.69,0-2.69,0Z"/>
    <g>
      <path class="cls-37" d="m139.51,221.04c1.79,12.11,6.85,43.27,1.41,53.38,2.16-3.99,2.11-8.72,2.26-13.14.04-4.49-.23-8.98-.61-13.45-.79-8.95-2.02-17.85-3.55-26.7l.49-.09h0Z"/>
      <path class="cls-37" d="m157.83,229.38c-1.7,3.32-3.56,6.54-5.64,9.64-2.12,2.99-4.3,6.24-7.58,8.06,3.23-1.89,5.32-5.17,7.37-8.2,2-3.12,3.79-6.38,5.4-9.72l.45.22h0Z"/>
      <path class="cls-37" d="m122.46,246.07c14.68,13.02,20.1,33.93,18.05,52.95-.33,4.31-1.32,8.98-2.16,13.18.81-4.2,1.77-8.88,2.07-13.19,1.31-13.22-.87-27.03-7.32-38.73-2.85-5.17-6.45-10.02-10.94-13.81l.3-.4h0Z"/>
      <path class="cls-37" d="m136.47,286.36c-6.59,9.36-12.91,19.15-16.89,29.94-.75,2.17-1.34,4.4-1.64,6.68-.51,3.97-1.11,8.03-.57,12.03.13.55.21,1.17.62,1.58-.42-.41-.51-1.03-.64-1.57-.63-5.14.14-10.39,1.07-15.45,2.08-7.82,6.02-14.98,10.1-21.91,2.37-3.95,4.88-7.82,7.55-11.59l.4.29h0Z"/>
      <polygon class="cls-37" points="125.77 265.39 118.78 330.17 125.27 265.34 125.77 265.39 125.77 265.39"/>
      <path class="cls-37" d="m102.02,289.92c-.38,7.32-.59,14.66-.52,22,.18,6.38.07,12.92,1.81,19.11.29.85.63,1.76,1.36,2.35-.74-.58-1.08-1.49-1.39-2.34-1.81-6.18-1.77-12.73-2.03-19.12-.15-7.34-.02-14.69.28-22.03l.5.03h0Z"/>
      <path class="cls-37" d="m136.51,299.26c-1.33,6.47-2.92,12.88-4.85,19.19-1.99,6.26-4.07,12.65-7.75,18.14,3.62-5.53,5.61-11.93,7.51-18.21,1.84-6.32,3.35-12.75,4.59-19.21l.49.09h0Z"/>
      <path class="cls-37" d="m151.35,216.05c0,.09.61,35.84.62,35.93-1.81.81-2.96,2.74-3.44,4.61-.97,3.86-.17,7.94.97,11.69,2.77,7.5,2.9,15.96-.4,23.32-.79,1.82-1.71,3.6-2.88,5.22,1.16-1.62,2.07-3.4,2.85-5.23,3.25-7.36,3.07-15.78.27-23.25-1.17-3.78-2.01-7.88-1.04-11.8.51-1.94,1.62-3.85,3.49-4.77,0,0-.09.14-.09.14l-.83-35.83h.5Z"/>
    </g>
  </g>
</svg>