<?xml version="1.0" encoding="utf-8"?>
<!-- Generator: Adobe Illustrator 28.0.0, SVG Export Plug-In . SVG Version: 6.00 Build 0)  -->
<svg version="1.1" id="Layer_1" xmlns="http://www.w3.org/2000/svg" xmlns:xlink="http://www.w3.org/1999/xlink" x="0px" y="0px"
	 viewBox="0 0 291.5 215.1" style="enable-background:new 0 0 291.5 215.1;" xml:space="preserve">
<path d="M2.8,191.4c13.3-24.3,26.5-48.8,39.4-73.3s25.6-49.2,38.2-74c7-13.9,13.9-27.8,20.8-41.8l-2.6-1.5
	c-7.2,15.8-13.9,31.8-20.1,48S66.6,81.4,61.3,98c-3,9.4-5.8,18.8-8.4,28.3c-0.4,1.4,1.5,2.6,2.5,1.5c6.6-7.2,13.3-14.3,19.9-21.5
	l-2.5-1.5c-0.8,3,0.7,5.8,3.1,7.5c2.6,1.9,5.9,2.1,8.9,0.9c3.2-1.2,5.7-3.6,8.1-6c2.8-2.9,5.6-5.9,8.2-8.9c3-3.5,5.9-7,8.8-10.6
	l-2.6-1.1c1.3,18.5-4.8,36.7-11.3,53.8s-13.9,32.3-22.7,47.5c-5,8.6-10.4,16.9-16.2,25l2.4-0.3c-3.5-4.2-1.2-10.6,0.2-15.1
	c1.8-5.8,3.7-11.5,5.7-17.2c4-11.2,8.5-22.3,13.5-33.1c10-21.8,22-42.6,35.7-62.3c7.7-11.1,16-21.8,24.8-32l-2.4-1.8
	c-9.5,14.1-13.2,31.7-10.3,48.5c0.1,0.8,1.1,1.3,1.9,1.1c2.6-0.8,4.8-2.6,6.1-5c0.8-1.4-1.2-3.1-2.4-1.8
	c-6.6,7.4-11.6,16.1-14.7,25.5c-0.5,1.5,1.5,2.4,2.5,1.5c4.8-4.6,9.7-9.3,14.5-13.9l-2.4-0.3c2.6,3.7,0.9,8.7,3.1,12.6
	c1.9,3.3,6,5.7,9.3,3c1.5-1.2-0.6-3.3-2.1-2.1c-1,0.8-2.4,0-3.3-0.7c-1.2-1-1.8-2.4-2.1-3.9c-0.6-3.5-0.2-7.3-2.3-10.4
	c-0.6-0.8-1.6-1-2.4-0.3c-4.8,4.6-9.7,9.3-14.5,13.9l2.5,1.5c2.9-8.9,7.6-17.2,13.9-24.2l-2.4-1.8c-0.9,1.8-2.4,3-4.3,3.6l1.9,1.1
	c-2.7-16,1-32.7,10-46.2c0.9-1.4-1.2-3.1-2.4-1.8c-16.1,18.7-30.5,38.8-42.9,60.1s-22.9,43.6-31.2,66.7c-2.3,6.5-4.5,13-6.5,19.6
	c-1.7,5.7-3.4,12.4,0.8,17.4c0.7,0.8,1.8,0.4,2.4-0.3c10.4-14.6,19.5-29.9,27.4-46s14.8-33,19.5-50.4c2.8-10.2,4.5-20.9,3.7-31.5
	c-0.1-1.1-1.7-2.2-2.6-1.1c-5.4,6.9-11.1,13.6-17.3,19.8c-2.4,2.5-5.5,5.5-9.2,5.6c-2.7,0.1-6.4-2.2-5.6-5.4
	c0.4-1.4-1.5-2.6-2.5-1.5c-6.6,7.2-13.3,14.3-19.9,21.5l2.5,1.5c4.7-16.7,9.8-33.2,15.4-49.5C76.9,61.2,83,45.1,89.5,29.2
	c3.7-9,7.6-18,11.7-26.9c0.8-1.7-1.7-3.3-2.6-1.5C86.3,25.7,73.9,50.5,61.2,75.2s-25.6,49.3-38.7,73.7c-7.4,13.7-14.8,27.4-22.2,41
	C-0.7,191.6,1.9,193.1,2.8,191.4L2.8,191.4L2.8,191.4z"/>
<path d="M271.2,18.2c-19.4,15.7-39.3,31.9-52.6,53.4c-6.2,10-11,21.1-13.1,32.7c-0.9,4.8-1.8,10.6,0.7,15.1c1.2,2.1,3.3,3.7,5.6,4.2
	c2.6,0.5,5.3-0.3,7.6-1.5c3-1.6,5.4-3.9,7.8-6.2c2.5-2.4,4.9-5,7.2-7.6c4.9-5.4,9.4-11,13.6-16.9l-2.7-1.2c-1.3,3.5-2.5,7-3.8,10.5
	c-0.3,0.9,0.5,1.9,1.4,1.9c3.7-0.1,6.7-2.1,9.8-3.8c1.4-0.8,2.9-1.5,4.5-1.8c2.2-0.4,4.3,0.3,6.3,1.1c4.2,1.7,8.3,3.2,12.7,4.1
	s9.1,1.3,13.7,1.2c1.9,0,1.9-3,0-3c-4.6,0.1-9.3-0.3-13.8-1.3s-8.4-2.7-12.7-4.2c-2-0.8-4.2-1.2-6.3-0.9c-1.6,0.2-3.2,0.8-4.6,1.6
	c-3.1,1.5-6,4-9.6,4.1l1.4,1.9c1.3-3.5,2.5-7,3.8-10.5c0.6-1.7-1.8-2.4-2.7-1.2c-3.6,4.9-7.3,9.7-11.3,14.3s-7.9,9-12.4,12.8
	c-3.3,2.7-9.4,6.2-12.6,1.5c-2.6-3.9-1.4-9.7-0.6-13.9c4.2-22.6,18.1-41.9,34.2-57.8c9.6-9.5,20.1-18,30.6-26.5
	C274.8,19.1,272.7,17,271.2,18.2L271.2,18.2L271.2,18.2z"/>
</svg>
